<svg width="364" height="282" viewBox="0 0 364 282" fill="none" xmlns="http://www.w3.org/2000/svg">
<path d="M52.9993 158C52.166 157 50.4993 154.7 50.4993 153.5C44.8992 150.7 43.8326 146 43.9993 144C42.9994 142.333 41.5995 138 43.9993 134C43.9993 132 40.9993 121 43.9993 117.5C43.9993 113.1 46.4993 107 50.4993 108C55.0038 109.704 62.9585 112.687 67.3873 116C66.4247 109.167 67.3995 95.3001 78.9995 94.5001C93.4995 93.5001 77.9995 105 78.9995 110C79.9995 115 81.4995 121 80.9995 125.5C80.4995 130 77.9995 133 77.4995 136C77.0995 138.4 75.9995 148.667 75.4995 153.5C67.8991 171.1 57.3326 163.833 52.9993 158Z" fill="#FFDFC9"/>
<path d="M50.4993 153.5C50.4993 154.7 52.166 157 52.9993 158C57.3326 163.833 67.8991 171.1 75.4995 153.5C75.9995 148.667 77.0995 138.4 77.4995 136C77.9995 133 80.4995 130 80.9995 125.5C81.4995 121 79.9995 115 78.9995 110C77.9995 105 93.4995 93.5001 78.9995 94.5001C67.3995 95.3001 66.4247 109.167 67.3873 116M50.4993 153.5C56.4993 152.333 68.3993 149.3 67.9993 146.5C67.5993 143.7 66.166 142.667 65.4993 142.5M50.4993 153.5C44.8992 150.7 43.8326 146 43.9993 144C42.9994 142.333 41.5995 138 43.9993 134C43.9993 132 40.9993 121 43.9993 117.5C43.9993 113.1 46.4993 107 50.4993 108C55.0038 109.704 62.9585 112.687 67.3873 116M65.4993 142.5C59.666 143.5 47.6993 145.2 46.4993 144M65.4993 142.5C67.3327 141.833 70.5993 139.6 68.9993 136M68.9993 136C66.9993 131.5 49.4993 135.5 46.4993 133M68.9993 136C71.166 133.667 73.9993 128.3 67.9993 125.5M67.9993 125.5C60.4993 122 46.4993 122.5 46.4993 119.5M67.9993 125.5C69.3327 125.167 71.6993 123.5 70.4993 119.5C70.1759 118.422 69.0217 117.223 67.3873 116" stroke="#491F00" stroke-width="2" stroke-linecap="round"/>
<path d="M131 31.0001C131.5 17.5001 159.5 18.5001 162.5 26.0001C164.135 30.0872 166.017 42.2947 167.42 53.14C169.78 49.4267 175 44.1001 177 52.5001C179 60.9001 172.168 62.3334 168.502 62.0001C168.691 63.6482 168.859 65.1661 169 66.5001C157 96.9001 141.667 83.8334 135.5 73.5001L130 72.0001C122.8 66.0001 129.105 60.5001 133.157 58.5001C131.945 49.9734 130.714 38.7227 131 31.0001Z" fill="#FFDFC9"/>
<path d="M169 66.5001C168.859 65.1661 168.691 63.6482 168.502 62.0001M169 66.5001L168.502 62.0001M169 66.5001C157 96.9001 141.667 83.8334 135.5 73.5001M168.502 62.0001C172.168 62.3334 179 60.9001 177 52.5001C175 44.1001 169.78 49.4267 167.42 53.14M168.502 62.0001C168.193 59.3154 167.827 56.285 167.42 53.14M167.42 53.14C166.017 42.2947 164.135 30.0872 162.5 26.0001C159.5 18.5001 131.5 17.5001 131 31.0001C130.714 38.7227 131.945 49.9734 133.157 58.5001M133.157 58.5001C133.64 61.8978 134.12 64.863 134.5 67L135.5 73.5001M133.157 58.5001C129.105 60.5001 122.8 66.0001 130 72.0001L135.5 73.5001M138.5 49.5001L139.5 55.5001M150 44.5001L151 52.5001" stroke="#491F00" stroke-width="2" stroke-linecap="square"/>
<path d="M171.49 69.5001L134.49 97.0001L122.652 119C107.49 231 266.5 144 202.99 94.0001C201.997 93.2176 181.49 77.5001 171.49 69.5001Z" fill="#CFA844" stroke="#491F00" stroke-width="2" stroke-linecap="round"/>
<path d="M52.501 159.5C51.301 162.7 40 260.333 37 280L114 266L275.5 253H326.501L362 247.5C359.667 244.5 315.901 188.2 301.501 169C283.501 145 203.867 92.6776 203.001 94.0001C190.88 112.5 191 131 166.5 139C142 147 123.501 117.5 123.501 117.5L78.001 202C77.8343 196.5 77.201 178.8 76.001 152C75.501 154 62.001 159.5 52.501 159.5Z" fill="#FF8A00"/>
<path d="M275.5 253H326.501L362 247.5C359.667 244.5 315.901 188.2 301.501 169C283.501 145 203.867 92.6776 203.001 94.0001C190.88 112.5 191 131 166.5 139C142 147 123.501 117.5 123.501 117.5L78.001 202C77.8343 196.5 77.201 178.8 76.001 152C75.501 154 62.001 159.5 52.501 159.5C51.301 162.7 40 260.333 37 280L114 266M275.5 253L236.5 159.5M275.5 253L114 266M114 266L132 178" stroke="#491F00" stroke-width="2" stroke-linecap="round"/>
<path d="M162.5 41.5C162.1 44.3 166 48.8334 167.5 51.5V28.5C167.5 15 124.6 -12.2 119 9.00005C113.4 30.2001 142.333 33.3334 156.5 30.5C156.833 32.6667 158.5 37.9 162.5 41.5Z" fill="#491F00" stroke="#491F00" stroke-width="2" stroke-linecap="square"/>
<path d="M129 105.5L135 96.5001L175.5 73.0001L183 78.0001L192 85L168.5 118.5L153 102.5L138.5 120.5L129 105.5Z" fill="#491F00"/>
<path d="M145 59.0001C134.625 59.83 120 83.0001 121 86.5001C122.5 89.5001 129.6 95.8001 144 99.0001C158.4 102.2 181 79.5001 180.5 76.0001C179.5 72.0001 170 57.0001 145 59.0001Z" fill="black" stroke="#491F00" stroke-width="2" stroke-linecap="round"/>
<path d="M2.00016 109C1.33349 99.8334 6.70016 81.6001 33.5002 82.0001C67.0002 82.5001 82.5 44.0001 80 34.0001" stroke="#491F00" stroke-width="2" stroke-linecap="square"/>
<path d="M19.5 256L29 214L9.5 240L19.5 256Z" fill="#EB633A"/>
</svg>
