<svg width="1920" height="701" viewBox="0 0 1920 701" fill="none" xmlns="http://www.w3.org/2000/svg">
<g clip-path="url(#clip0_3737_3581)">
<rect width="1920" height="700" transform="translate(0 0.265625)" fill="white"/>
<path d="M179.5 469.266H-135V792.266H1971.5V358.766H1809V500.266H1723.5V244.266H1532V325.266H1371.5L1471.5 225.266H1127.5V337.766H1002.5V279.266H888L829.5 337.766H740V444.266H617V294.266H406.5V640.266H179.5V469.266Z" fill="#FFF2E3"/>
<path d="M83 334.5H-104.5V786.766H1974V379.266H1779V515.266L1685 421.266V591.766L1643 549.766V618.766H1372V568.266L1484.5 455.766H1326.5V408.766H1255L1208 455.766H923.5V529.766H777.5L669 421.266V591.766H572.5V334.5H486V680H338V441H271V567H83V334.5Z" fill="#E8B371" fill-opacity="0.6"/>
</g>
<defs>
<clipPath id="clip0_3737_3581">
<rect width="1920" height="700" fill="white" transform="translate(0 0.265625)"/>
</clipPath>
</defs>
</svg>
