<svg width="1748" height="737" viewBox="0 0 1748 737" fill="none" xmlns="http://www.w3.org/2000/svg">
<path d="M609 572.767C522.5 583.267 326.3 603.467 233.5 600.267M145 600.267C132.167 600.267 84.2 588.767 3 588.767M1510 550.267C1543.83 550.267 1664.7 559.767 1745.5 559.767M1497 480.267C1510 480.267 1610.5 467.267 1671.5 467.267" stroke="#3F2200" stroke-opacity="0.3" stroke-width="5" stroke-linecap="round"/>
<path d="M104.5 458.267C108.36 459.203 122.764 461.042 153 462.747M200.5 464.767C181.54 464.171 165.842 463.471 153 462.747M398.5 451.767C423.428 447.779 465.257 442.272 505.5 439.494M592.5 440.767C571.884 436.754 539.249 437.164 505.5 439.494M672 330.267C641.934 327.831 596.611 324.989 549.5 323.523M378.5 330.267C414.61 322.113 483.793 321.479 549.5 323.523M505.5 439.494C508 423.252 511.5 387.267 505.5 373.268M505.5 373.268C481.667 370.101 431.4 365.668 421 373.268M505.5 373.268C522.833 374.934 561 377.268 575 373.268M549.5 323.523C545.833 311.104 539.6 279.167 544 250.767C581 248.934 659 248.167 675 259.767M153 462.747C153 449.754 153 420.267 153 406.267" stroke="#3F2200" stroke-opacity="0.3" stroke-width="5"/>
<path d="M1418.06 177.767C1355.26 155.767 1317.56 213.267 1306.56 244.767C1189.56 295.267 1045.06 73.7668 1012.56 170.767C980.057 267.767 960.557 258.767 996.057 303.267C1031.56 347.767 1141.06 380.767 1049.06 401.267C957.057 421.767 1019.56 541.767 1081.06 564.767C1142.56 587.767 1219.56 573.767 1320.56 564.767C1421.56 555.767 1464.56 584.267 1473.06 564.767C1481.56 545.267 1441.06 485.267 1440.06 468.767C1439.06 452.267 1476.06 425.267 1505.56 380.767C1535.06 336.267 1496.56 205.267 1418.06 177.767Z" stroke="#3F2200" stroke-width="5"/>
<path d="M1121.56 232.118C1099.16 240.118 1101.89 218.951 1101.56 208.118C1108.56 197.451 1126.86 173.803 1130.56 193.117C1135.06 216.617 1150.39 218.451 1145.56 239.618C1137.56 246.118 1123.56 251.718 1121.56 232.118Z" fill="#FF9B00" stroke="#3F2200" stroke-width="6"/>
<path d="M1239.06 564.836C1248.06 584.836 1232.06 594.267 1219.06 606.267C1206.06 618.267 1179.06 691.767 1137.56 699.767C1096.06 707.767 1087.06 703.767 1077.06 690.267C1066.06 675.434 1051.06 636.767 1097.56 629.267C1105.68 627.957 1110.89 623.792 1112.56 622.767C1062.56 639.767 1063.06 574.267 1078.56 574.267C1090.96 574.267 1096.39 570.313 1105.06 564.836C1103.45 563.752 1101.77 562.695 1100.06 561.643C1097.79 560.253 1095.44 558.872 1093.06 557.444C1087.76 554.275 1082.28 550.881 1077.06 546.676C1056.88 530.436 1036.16 514.553 1024.56 507.767C998.057 492.267 970.557 457.267 1008.06 433.267C1025.72 421.963 1078.56 429.283 1131.69 441.229C1116.96 402.815 1100.04 361.395 1093.06 352.267C1090.43 348.826 1088.41 344.853 1087.06 340.642C1056.56 346.518 1021.06 339.767 1021.06 334.767C1021.06 330.767 1023.39 317.767 1024.56 311.767C1004.06 311.767 966.057 329.767 972.557 334.767C979.057 339.767 981.057 352.267 976.557 362.267C972.957 370.267 975.057 373.267 976.557 373.767C980.723 376.1 988.957 381.467 988.557 384.267C988.057 387.767 974.057 394.267 981.057 394.267C988.057 394.267 1000.06 405.767 995.057 412.267C990.057 418.767 983.557 408.267 981.057 412.267C978.557 416.267 973.057 416.267 966.057 412.267C959.057 408.267 952.557 421.267 942.057 421.267C931.557 421.267 937.057 408.267 933.557 398.267C930.057 388.267 919.057 386.767 913.557 380.767C908.057 374.767 920.057 355.267 927.057 352.267C934.057 349.267 952.057 311.767 960.057 305.267C968.057 298.767 1002.56 293.267 1021.06 284.267C1035.86 277.067 1071.22 275.267 1087.06 275.267C1092.72 268.433 1105.36 254.267 1110.56 252.267C1117.06 249.767 1127.56 252.267 1136.56 252.267H1153.56C1146.06 247.267 1136.56 228.267 1136.56 221.767C1136.56 215.267 1089.56 151.436 1161.06 115.267C1218.26 86.3318 1261.89 128.155 1276.56 152.267C1291.84 144.027 1308.37 146.251 1310.06 166.767C1311.91 189.254 1300.74 200.683 1288.56 205.201C1283.06 207.237 1277.36 207.87 1272.56 207.478L1285.06 229.006C1289.29 230.101 1294.91 232.501 1301.64 236.787C1315.64 245.703 1334.45 262.784 1355.56 293.267C1398.17 354.817 1388.32 396.641 1383.76 457.795C1383.51 461.223 1383.27 464.711 1383.06 468.267C1379.06 535.267 1362.06 546.676 1323.06 563.267C1315.43 566.512 1307.47 568.594 1299.56 569.808C1275.11 573.56 1251.15 569.014 1239.06 564.836Z" fill="#FFF0E2"/>
<path d="M1021.06 449.267C1034.89 450.434 1066.96 458.267 1084.56 480.267C1095.91 494.46 1108.6 509.851 1121.45 521.767M1239.06 564.836C1248.06 584.836 1232.06 594.267 1219.06 606.267C1206.06 618.267 1179.06 691.767 1137.56 699.767C1096.06 707.767 1087.06 703.767 1077.06 690.267C1066.06 675.434 1051.06 636.767 1097.56 629.267C1105.68 627.957 1110.89 623.792 1112.56 622.767M1239.06 564.836C1237.39 561.124 1231.92 556.161 1228.06 553.767M1239.06 564.836C1251.15 569.014 1275.11 573.559 1299.56 569.808M1145.06 538.717C1149.13 540.615 1153.14 541.85 1157.06 542.267C1173.25 543.989 1200.71 543.511 1219.06 549.679M1145.06 538.717C1150.22 533.9 1159.86 521.667 1157.06 511.267C1156.01 507.392 1151.06 493.214 1144.28 474.767M1145.06 538.717C1139.47 536.111 1133.76 532.256 1128.06 527.56M1173.56 311.767C1145.56 287.267 1128.06 290.267 1105.06 297.767C1094.73 301.135 1088.64 309.039 1086.23 318.267M1173.56 311.767C1184.62 310.174 1201.5 307.326 1216.06 303.972M1173.56 311.767C1179.28 316.774 1189.24 325.749 1201.56 337.135M1341.06 487.767C1337.84 477.468 1322.24 458.107 1301.64 435.767M1120.56 326.767C1139.89 338.537 1179.16 371.316 1181.56 408.267C1182.16 417.518 1183.06 426.794 1184.17 435.767M1228.06 553.767C1236.56 525.19 1208.06 514.267 1201.56 507.767C1197.79 503.997 1192.67 486.669 1188.45 463.767M1228.06 553.767C1225.44 552.148 1222.4 550.803 1219.06 549.679M1184.17 435.767L1196.56 457.795M1184.17 435.767C1184.99 442.427 1185.93 448.921 1186.95 455.112M1196.56 457.795C1207.72 473.286 1231.26 507.467 1236.06 520.267C1246.7 548.647 1268.05 572.331 1299.56 569.808M1196.56 457.795C1193.41 456.905 1190.21 456.009 1186.95 455.112M1087.06 275.267C1114.89 276.6 1176.76 273.867 1201.56 252.267C1204.25 249.92 1207.1 247.789 1210.06 245.854M1087.06 275.267C1071.22 275.267 1035.86 277.067 1021.06 284.267C1002.56 293.267 968.057 298.767 960.057 305.267C952.057 311.767 934.057 349.267 927.057 352.267C920.057 355.267 908.057 374.767 913.557 380.767C919.057 386.767 930.057 388.267 933.557 398.267C937.057 408.267 931.557 421.267 942.057 421.267C952.557 421.267 959.057 408.267 966.057 412.267C973.057 416.267 978.557 416.267 981.057 412.267C983.557 408.267 990.057 418.767 995.057 412.267C1000.06 405.767 988.057 394.267 981.057 394.267C974.057 394.267 988.057 387.767 988.557 384.267C988.957 381.467 980.723 376.1 976.557 373.767C975.057 373.267 972.957 370.267 976.557 362.267C981.057 352.267 979.057 339.767 972.557 334.767C966.057 329.767 1004.06 311.767 1024.56 311.767M1087.06 275.267C1092.72 268.433 1105.36 254.267 1110.56 252.267C1117.06 249.767 1127.56 252.267 1136.56 252.267C1142.71 252.267 1148.17 252.267 1153.56 252.267M1024.56 311.767C1023.39 317.767 1021.06 330.767 1021.06 334.767C1021.06 339.767 1056.56 346.518 1087.06 340.642M1024.56 311.767C1037.11 311.767 1058.54 314.305 1074.06 316.468M1086.23 318.267C1084.37 325.43 1084.73 333.389 1087.06 340.642M1086.23 318.267C1083.01 317.758 1078.81 317.131 1074.06 316.468M1087.06 340.642C1088.41 344.853 1090.43 348.826 1093.06 352.267C1100.04 361.395 1116.96 402.815 1131.69 441.229M1074.06 316.468C1066.72 321.734 1048.96 331.967 1036.56 330.767M1181.56 257.267C1181.56 264.767 1190.56 265.767 1196.56 270.767C1202.56 275.767 1196.56 286.767 1201.56 293.267C1205.56 298.467 1212.89 298.433 1216.06 297.767C1215.22 287.433 1212.86 266.567 1210.06 265.767C1206.56 264.767 1193.06 247.267 1187.06 249.767C1181.06 252.267 1169.06 252.267 1161.06 252.267C1158.53 252.267 1156.05 252.267 1153.56 252.267M1244.56 293.267C1237.56 278.267 1223.22 258.658 1210.06 245.854M1244.56 293.267C1248.89 304.433 1254.96 327.567 1244.56 330.767M1244.56 293.267C1237.56 297.767 1230.45 300.656 1216.06 303.972M1210.06 245.854C1222.89 237.458 1237.79 232.774 1251.06 230.356M1244.56 330.767C1250.06 331.433 1260.91 326.767 1262.06 325.314M1244.56 330.767C1241.76 331.626 1238.88 331.374 1236.06 330.342M1216.06 303.972C1216.29 310.104 1221.34 319.315 1228.06 325.314M1262.06 325.314C1264.99 321.606 1276.76 313.446 1280.06 310.223M1262.06 325.314C1264.56 331.481 1280.16 343.167 1288.56 358.767M1299.06 297.767C1294.91 297.767 1287.42 303.019 1280.06 310.223M1280.06 310.223C1286.72 309.709 1300.56 308.989 1302.56 310.223M1301.64 435.767C1334.1 424.967 1369.92 445.952 1383.76 457.795M1301.64 435.767C1295.79 429.428 1289.54 422.85 1283.06 416.17M1383.76 457.795C1383.51 461.223 1383.27 464.711 1383.06 468.267C1379.06 535.267 1362.06 546.676 1323.06 563.267C1315.43 566.512 1307.47 568.594 1299.56 569.808M1383.76 457.795C1388.32 396.64 1398.17 354.817 1355.56 293.267C1334.45 262.784 1315.64 245.703 1301.64 236.787C1294.91 232.501 1289.29 230.101 1285.06 229.006M1251.06 230.356C1262.88 228.203 1273.41 227.847 1280.06 228.267C1281.4 228.267 1283.08 228.493 1285.06 229.006M1251.06 230.356C1254.56 224.66 1261.66 211.367 1262.06 203.767C1264.03 205.742 1267.87 207.097 1272.56 207.478M1258.06 166.767C1259.06 163.954 1267.09 157.373 1276.56 152.267M1276.56 152.267C1261.89 128.155 1218.26 86.3318 1161.06 115.267C1089.56 151.436 1136.56 215.267 1136.56 221.767C1136.56 228.267 1146.06 247.267 1153.56 252.267M1276.56 152.267C1291.84 144.027 1308.37 146.251 1310.06 166.767C1311.91 189.254 1300.74 200.683 1288.56 205.201C1283.06 207.237 1277.36 207.87 1272.56 207.478M1201.56 337.135C1224.6 358.443 1255.89 388.192 1283.06 416.17M1201.56 337.135C1206.47 336.439 1215.38 334.381 1221.78 330.767C1224.49 329.234 1226.75 327.422 1228.06 325.314M1228.06 325.314C1230.55 327.539 1233.27 329.322 1236.06 330.342M1100.06 561.643C1099.72 550.38 1104.86 527.795 1128.06 527.56M1100.06 561.643C1097.79 560.253 1095.44 558.872 1093.06 557.444M1100.06 561.643C1101.77 562.695 1103.45 563.752 1105.06 564.836M1128.06 527.56C1125.85 525.747 1123.65 523.808 1121.45 521.767M1093.06 557.444C1087.76 554.275 1082.28 550.881 1077.06 546.676C1056.88 530.436 1036.16 514.553 1024.56 507.767C998.057 492.267 970.557 457.267 1008.06 433.267C1025.72 421.963 1078.56 429.283 1131.69 441.229M1093.06 557.444C1091.15 546.885 1094.16 524.967 1121.45 521.767M1144.28 474.767C1151.97 479.1 1171.57 482.967 1188.45 463.767M1144.28 474.767C1143.16 471.708 1141.98 468.533 1140.77 465.267M1188.45 463.767C1187.94 460.961 1187.43 458.071 1186.95 455.112M1140.77 465.267C1149.96 469.163 1172.06 472.587 1186.95 455.112M1140.77 465.267C1137.92 457.629 1134.86 449.499 1131.69 441.229M1283.06 416.17C1285.21 405.221 1280.59 391.655 1273.18 378.267C1262.66 359.281 1246.52 340.65 1236.06 330.342M1147.06 631.767C1149.22 642.6 1147.46 665.467 1123.06 670.267M1105.06 564.836C1111.69 569.301 1117.26 574.238 1120.56 581.267C1123.86 593.105 1123.93 615.792 1112.56 622.767M1105.06 564.836C1096.39 570.313 1090.96 574.267 1078.56 574.267C1063.06 574.267 1062.56 639.767 1112.56 622.767M1219.06 549.679C1203.06 544.301 1189.4 551.066 1186.06 561.643C1180.06 580.643 1175.06 599.267 1164.06 603.767M1285.06 229.006L1272.56 207.478M1292.56 156.767C1289.25 157.566 1286.03 158.734 1283.06 160.114M1263.06 192.267C1266.06 192.767 1270.27 189.896 1271.06 186.767C1272.56 180.767 1264.56 180.267 1265.56 174.267C1266.14 170.795 1272.99 164.781 1283.06 160.114M1283.06 160.114C1289.89 162.665 1308.56 175.267 1286.56 191.767" stroke="#3F2200" stroke-width="5"/>
<path d="M1239.06 564.836C1248.06 584.836 1232.06 594.267 1219.06 606.267C1206.06 618.267 1179.06 691.767 1137.56 699.767C1096.06 707.767 1087.06 703.767 1077.06 690.267C1066.06 675.433 1051.06 636.767 1097.56 629.267C1105.68 627.957 1110.89 623.791 1112.56 622.767C1062.56 639.767 1063.06 574.267 1078.56 574.267C1090.96 574.267 1096.39 570.313 1105.06 564.836C1103.45 563.751 1101.77 562.695 1100.06 561.643C1097.79 560.253 1095.44 558.871 1093.06 557.444C1091.15 546.885 1094.16 524.967 1121.45 521.767C1123.65 523.808 1125.85 525.746 1128.06 527.56C1133.76 532.256 1139.47 536.11 1145.06 538.717C1150.22 533.9 1159.86 521.666 1157.06 511.266C1156.01 507.392 1151.06 493.213 1144.28 474.767C1143.16 471.708 1141.98 468.532 1140.77 465.267C1149.96 469.163 1172.06 472.587 1186.95 455.111C1187.43 458.07 1187.94 460.96 1188.45 463.767C1192.67 486.669 1197.79 503.997 1201.56 507.767C1208.06 514.266 1236.56 525.189 1228.06 553.767C1231.92 556.161 1237.39 561.124 1239.06 564.836Z" fill="white"/>
<path d="M1145.06 538.717C1149.13 540.614 1153.14 541.85 1157.06 542.267C1173.25 543.989 1200.71 543.51 1219.06 549.679M1145.06 538.717C1150.22 533.9 1159.86 521.666 1157.06 511.266C1156.01 507.392 1151.06 493.213 1144.28 474.767M1145.06 538.717C1139.47 536.11 1133.76 532.256 1128.06 527.56M1228.06 553.767C1231.92 556.161 1237.39 561.124 1239.06 564.836C1248.06 584.836 1232.06 594.267 1219.06 606.267C1206.06 618.267 1179.06 691.767 1137.56 699.767C1096.06 707.767 1087.06 703.767 1077.06 690.267C1066.06 675.433 1051.06 636.767 1097.56 629.267C1105.68 627.957 1110.89 623.791 1112.56 622.767M1228.06 553.767C1236.56 525.189 1208.06 514.266 1201.56 507.767C1197.79 503.997 1192.67 486.669 1188.45 463.767M1228.06 553.767C1225.44 552.148 1222.4 550.803 1219.06 549.679M1100.06 561.643C1099.72 550.379 1104.86 527.794 1128.06 527.56M1100.06 561.643C1097.79 560.253 1095.44 558.871 1093.06 557.444C1091.15 546.885 1094.16 524.967 1121.45 521.767C1123.65 523.808 1125.85 525.746 1128.06 527.56M1100.06 561.643C1101.77 562.695 1103.45 563.751 1105.06 564.836M1144.28 474.767C1151.97 479.1 1171.57 482.967 1188.45 463.767M1144.28 474.767C1143.16 471.708 1141.98 468.532 1140.77 465.267C1149.96 469.163 1172.06 472.587 1186.95 455.111C1187.43 458.07 1187.94 460.96 1188.45 463.767M1147.06 631.767C1149.22 642.6 1147.46 665.467 1123.06 670.267M1105.06 564.836C1111.69 569.301 1117.26 574.237 1120.56 581.267C1123.86 593.104 1123.93 615.791 1112.56 622.767M1105.06 564.836C1096.39 570.313 1090.96 574.267 1078.56 574.267C1063.06 574.267 1062.56 639.767 1112.56 622.767M1219.06 549.679C1203.06 544.301 1189.4 551.065 1186.06 561.643C1180.06 580.643 1182.06 606.767 1171.06 611.267" stroke="#3F2200" stroke-width="5"/>
<path d="M1128.06 527.56C1104.86 527.794 1099.72 550.379 1100.06 561.643C1097.79 560.253 1095.44 558.871 1093.06 557.444C1091.15 546.885 1094.16 524.967 1121.45 521.767C1123.65 523.808 1125.85 525.746 1128.06 527.56Z" fill="#E58C5A"/>
<path d="M1188.45 463.767C1171.57 482.967 1151.97 479.1 1144.28 474.767C1143.16 471.708 1141.98 468.532 1140.77 465.267C1149.96 469.163 1172.06 472.587 1186.95 455.111C1187.43 458.07 1187.94 460.96 1188.45 463.767Z" fill="#E58C5A"/>
<path d="M1128.06 527.56C1104.86 527.794 1099.72 550.379 1100.06 561.643C1097.79 560.253 1095.44 558.871 1093.06 557.444C1091.15 546.885 1094.16 524.967 1121.45 521.767C1123.65 523.808 1125.85 525.746 1128.06 527.56Z" stroke="#3F2200" stroke-width="5"/>
<path d="M1188.45 463.767C1171.57 482.967 1151.97 479.1 1144.28 474.767C1143.16 471.708 1141.98 468.532 1140.77 465.267C1149.96 469.163 1172.06 472.587 1186.95 455.111C1187.43 458.07 1187.94 460.96 1188.45 463.767Z" stroke="#3F2200" stroke-width="5"/>
<path d="M1244.56 293.267C1237.56 278.267 1223.22 258.658 1210.06 245.854C1222.89 237.457 1237.79 232.773 1251.06 230.356C1262.88 228.203 1273.41 227.847 1280.06 228.267C1281.4 228.267 1283.08 228.493 1285.06 229.006C1289.29 230.101 1294.91 232.501 1301.64 236.787C1315.64 245.703 1334.45 262.784 1355.56 293.267C1398.17 354.817 1388.32 396.64 1383.76 457.795C1369.92 445.952 1334.1 424.966 1301.64 435.767C1295.79 429.428 1289.54 422.85 1283.06 416.17C1285.21 405.221 1280.59 391.655 1273.18 378.267C1262.66 359.28 1246.52 340.65 1236.06 330.342C1233.27 329.322 1230.55 327.539 1228.06 325.314C1221.34 319.315 1216.29 310.104 1216.06 303.972C1230.45 300.656 1237.56 297.767 1244.56 293.267Z" fill="#225F67"/>
<path d="M1244.56 293.267C1237.56 278.267 1223.22 258.658 1210.06 245.854C1222.89 237.457 1237.79 232.773 1251.06 230.356C1262.88 228.203 1273.41 227.847 1280.06 228.267C1281.4 228.267 1283.08 228.493 1285.06 229.006C1289.29 230.101 1294.91 232.501 1301.64 236.787C1315.64 245.703 1334.45 262.784 1355.56 293.267C1398.17 354.817 1388.32 396.64 1383.76 457.795C1369.92 445.952 1334.1 424.966 1301.64 435.767C1295.79 429.428 1289.54 422.849 1283.06 416.17C1285.21 405.221 1280.59 391.655 1273.18 378.267C1262.66 359.28 1246.52 340.65 1236.06 330.342M1244.56 293.267C1248.89 304.433 1254.96 327.567 1244.56 330.767M1244.56 293.267C1237.56 297.767 1230.45 300.656 1216.06 303.972C1216.29 310.104 1221.34 319.315 1228.06 325.314C1230.55 327.539 1233.27 329.322 1236.06 330.342M1244.56 330.767C1250.06 331.433 1260.91 326.767 1262.06 325.314M1244.56 330.767C1241.76 331.626 1238.88 331.374 1236.06 330.342M1262.06 325.314C1264.99 321.606 1276.76 313.445 1280.06 310.223M1262.06 325.314C1264.56 331.481 1280.16 343.167 1288.56 358.767M1299.06 297.767C1294.91 297.767 1287.42 303.018 1280.06 310.223M1280.06 310.223C1286.72 309.709 1300.56 308.989 1302.56 310.223" stroke="#3F2200" stroke-width="5"/>
<path d="M1278.56 328.267C1268.16 337.067 1250.22 336.933 1242.56 335.767C1287.56 390.267 1281.56 401.767 1283.56 412.267L1298.06 430.767C1313.06 440.267 1347.06 398.267 1341.56 398.267C1335.73 398.267 1297.56 402.267 1300.06 401.767C1302.56 401.267 1324.56 389.767 1316.56 391.267C1308.56 392.767 1286.06 396.267 1294.56 390.267C1303.06 384.267 1330.56 361.267 1312.56 370.267C1294.56 379.267 1271.06 349.267 1275.06 351.267C1279.06 353.267 1325.56 334.767 1308.06 338.267C1294.06 341.067 1282.89 339.433 1279.06 338.267C1283.22 331.267 1288.96 319.467 1278.56 328.267Z" fill="#155058"/>
<path d="M1157.06 511.266C1159.86 521.666 1150.22 533.899 1145.06 538.716C1139.47 536.11 1133.76 532.255 1128.06 527.559C1125.85 525.746 1123.65 523.807 1121.45 521.766C1108.6 509.85 1095.91 494.459 1084.56 480.266C1097.39 486.766 1123.06 497.366 1123.06 487.766C1123.06 478.166 1103.06 447.563 1093.06 433.462C1105.57 435.632 1118.62 438.29 1131.69 441.229C1134.86 449.498 1137.92 457.628 1140.77 465.266C1141.98 468.532 1143.16 471.708 1144.28 474.766C1151.06 493.213 1156.01 507.391 1157.06 511.266Z" fill="#FFBD81"/>
<path d="M1184.17 435.767C1183.06 426.794 1182.16 417.518 1181.56 408.267C1191.06 422.267 1214.58 448.267 1221.78 456.267C1228.98 464.267 1248.72 480.934 1259.06 486.267L1236.06 520.267C1231.26 507.467 1207.72 473.286 1196.56 457.795L1184.17 435.767Z" fill="#FFBD81"/>
<path d="M1244.56 330.767C1254.96 327.567 1248.89 304.433 1244.56 293.267C1237.56 297.767 1230.45 300.656 1216.06 303.972C1216.29 310.104 1221.34 319.315 1228.06 325.314C1230.55 327.539 1233.27 329.322 1236.06 330.342C1238.88 331.374 1241.76 331.626 1244.56 330.767Z" fill="#0F353A" stroke="#3F2200" stroke-width="5"/>
<g filter="url(#filter0_d_2113_3178)">
<path d="M1219.06 606.267C1232.06 594.267 1248.06 584.836 1239.06 564.836C1237.39 561.124 1231.92 556.161 1228.06 553.767C1225.44 552.148 1222.4 550.804 1219.06 549.68C1203.06 544.301 1189.4 551.066 1186.06 561.643C1180.06 580.643 1186.06 599.767 1168.56 613.267C1156.39 620.767 1125.56 631.667 1097.56 629.267C1051.06 636.767 1066.06 675.434 1077.06 690.267C1087.06 703.767 1096.06 707.767 1137.56 699.767C1179.06 691.767 1206.06 618.267 1219.06 606.267Z" fill="#FFDDCA"/>
<path d="M1147.06 631.767C1149.22 642.6 1147.46 665.467 1123.06 670.267M1239.06 564.836C1248.06 584.836 1232.06 594.267 1219.06 606.267C1206.06 618.267 1179.06 691.767 1137.56 699.767C1096.06 707.767 1087.06 703.767 1077.06 690.267C1066.06 675.434 1051.06 636.767 1097.56 629.267C1125.56 631.667 1156.39 620.767 1168.56 613.267C1186.06 599.767 1180.06 580.643 1186.06 561.643C1189.4 551.066 1203.06 544.301 1219.06 549.68C1222.4 550.804 1225.44 552.148 1228.06 553.767C1231.92 556.161 1237.39 561.124 1239.06 564.836Z" stroke="#3F2201" stroke-width="6"/>
</g>
<path d="M1157.06 511.267C1159.86 521.667 1150.72 533.95 1145.56 538.767L1137.56 534.267C1150.84 514.267 1131.93 462.12 1120.56 438.796C1124.26 439.581 1127.97 440.394 1131.69 441.229C1134.86 449.499 1137.92 457.628 1140.77 465.267C1141.98 468.533 1143.16 471.708 1144.28 474.767C1151.06 493.214 1156.01 507.392 1157.06 511.267Z" fill="#737373" stroke="#3F2200" stroke-width="5"/>
<path d="M1239.06 564.836C1237.39 561.124 1231.92 556.161 1228.06 553.767C1236.56 525.189 1208.06 514.266 1201.56 507.767C1197.79 503.997 1192.67 486.669 1188.45 463.767C1187.94 460.96 1187.43 458.07 1186.95 455.111C1190.21 456.009 1193.42 456.905 1196.56 457.795C1207.72 473.285 1231.26 507.466 1236.06 520.266C1246.7 548.647 1268.05 572.331 1299.56 569.808C1275.11 573.559 1251.15 569.014 1239.06 564.836Z" fill="#737373"/>
<path d="M1228.06 553.767C1231.92 556.161 1237.39 561.124 1239.06 564.836C1251.15 569.014 1275.11 573.559 1299.56 569.808C1268.05 572.331 1246.7 548.647 1236.06 520.266C1231.26 507.466 1207.72 473.285 1196.56 457.795C1193.42 456.905 1190.21 456.009 1186.95 455.111C1187.43 458.07 1187.94 460.96 1188.45 463.767C1192.67 486.669 1197.79 503.997 1201.56 507.767C1208.06 514.266 1236.56 525.189 1228.06 553.767ZM1228.06 553.767C1225.44 552.148 1222.4 550.803 1219.06 549.679" stroke="#3F2200" stroke-width="5"/>
<path d="M1197.06 204.766C1190.26 204.366 1183.56 186.599 1181.06 177.766C1196.06 141.266 1223.06 154.766 1226.56 156.766C1230.06 158.766 1241.56 176.266 1238.56 184.766C1235.56 193.266 1205.56 205.266 1197.06 204.766Z" fill="white"/>
<path d="M1141.56 229.849C1134.76 229.449 1128.06 211.683 1125.56 202.849C1140.56 166.349 1152.06 184.767 1155.56 186.767C1159.06 188.767 1170.56 206.267 1167.56 214.767C1164.56 223.267 1150.06 230.349 1141.56 229.849Z" fill="white"/>
<rect x="1191.56" y="178.403" width="9.98714" height="18.3731" rx="4.99357" transform="rotate(-15.3101 1191.56 178.403)" fill="#3F2200"/>
<rect x="1136.56" y="208.291" width="6.98549" height="16.2454" rx="3.49275" transform="rotate(-30.3004 1136.56 208.291)" fill="#3F2200"/>
<path d="M1182.06 180.766C1188.56 135.766 1220.06 152.766 1232.56 160.766M1158.06 194.266C1153.89 188.099 1144.69 180.291 1138.06 181.766C1129.06 183.766 1126.56 198.766 1125.06 205.266" stroke="#3F2200" stroke-width="10"/>
<path d="M1192.74 114.495C1192.74 140.995 1163.41 142.495 1157.74 136.495C1160.24 177.995 1134.55 150.554 1132.24 161.495C1130.82 168.283 1144.56 169.766 1122.06 191.266C1131.87 201.766 1128.75 216.277 1116.56 221.266C1094.56 230.266 1090 228.857 1076.74 211.766C1069.98 203.044 1082.42 191.131 1076.74 185.995C1055.74 166.995 1087.74 150.995 1084.74 136.495C1081.74 121.995 1063.74 98.4947 1107.74 87.4947C1112.74 46.9948 1125.24 70.4948 1157.74 49.4948C1190.24 28.4948 1223.06 49.4949 1227.56 56.7661C1242.56 55.2661 1261.24 66.4947 1271.24 81.4946C1281.74 71.9946 1324.06 73.7662 1334.56 111.266C1343.06 116.266 1357.66 114.538 1358.56 131.766C1359.26 145.307 1353.56 154.766 1346.56 160.266C1364.06 177.266 1347.24 200.495 1330.74 203.995C1326.24 235.495 1285.58 236.987 1276.06 208.766C1316.56 206.266 1319.56 147.266 1295.06 147.266C1281.06 146.766 1274.06 153.766 1268.06 153.766C1259.49 153.766 1230.74 144.995 1234.24 132.995C1239.8 113.957 1207.24 133.495 1192.74 114.495Z" fill="#FF9B00"/>
<path d="M1157.74 136.495C1163.41 142.495 1192.74 140.995 1192.74 114.495M1157.74 136.495C1160.24 177.995 1134.55 150.554 1132.24 161.495M1157.74 136.495C1161.51 133.085 1167.16 124.266 1159.56 116.266M1192.74 114.495C1207.24 133.495 1239.8 113.957 1234.24 132.995M1192.74 114.495C1190.85 111.418 1187.16 102.666 1187.56 92.2661M1234.24 132.995C1230.74 144.995 1259.49 153.766 1268.06 153.766C1274.06 153.766 1281.06 146.766 1295.06 147.266C1319.56 147.266 1316.56 206.266 1276.06 208.766C1285.58 236.987 1326.24 235.495 1330.74 203.995C1347.24 200.495 1364.06 177.266 1346.56 160.266C1353.56 154.766 1359.26 145.307 1358.56 131.766C1357.66 114.538 1343.06 116.266 1334.56 111.266M1234.24 132.995C1236.51 128.085 1246.46 120.966 1268.06 131.766M1334.56 111.266C1324.06 73.7662 1281.74 71.9946 1271.24 81.4946M1334.56 111.266C1326.89 105.766 1308.36 97.4662 1295.56 108.266M1271.24 81.4946C1261.24 66.4947 1242.56 55.2661 1227.56 56.7661M1271.24 81.4946C1266.35 84.6756 1255.86 93.3834 1253.06 102.766M1227.56 56.7661C1223.06 49.4949 1190.24 28.4948 1157.74 49.4948C1125.24 70.4948 1112.74 46.9948 1107.74 87.4947M1227.56 56.7661C1219.39 57.2661 1200.86 60.0661 1192.06 67.2661M1107.74 87.4947C1063.74 98.4947 1081.74 121.995 1084.74 136.495C1087.74 150.995 1055.74 166.995 1076.74 185.995C1082.42 191.131 1069.98 203.044 1076.74 211.766C1090 228.857 1094.56 230.266 1116.56 221.266C1128.75 216.277 1131.87 201.766 1122.06 191.266M1107.74 87.4947C1107.29 90.5852 1106.51 98.6662 1107.06 106.266M1132.24 161.495C1133.18 153.085 1133.06 135.366 1125.06 131.766M1132.24 161.495C1130.82 168.283 1144.56 169.766 1122.06 191.266M1122.06 191.266C1116.39 185.099 1105.16 180.795 1097.56 185.995" stroke="#3F2200" stroke-width="6"/>
<path d="M1224.55 497.267C1236.01 475.244 1243.29 413.492 1252.56 386.267C1261.89 394.1 1284.96 414.867 1302.56 435.267C1324.56 427.767 1358.06 437.767 1383.56 457.267C1383.95 462.943 1384.11 468.268 1384.07 473.267C1383.68 518.909 1366.32 537.352 1355.06 547.267C1345.06 556.067 1323.06 568.645 1300.56 571.267C1283.39 573.267 1247.56 572.067 1241.56 551.267C1235.56 530.467 1220.06 512.377 1213.06 505.933C1202.94 504.484 1198.54 480.687 1205.06 470.767L1224.55 497.267Z" fill="#D9D9D9"/>
<path d="M1224.55 497.267C1236.01 475.244 1243.29 413.492 1252.56 386.267C1261.89 394.1 1284.96 414.867 1302.56 435.267M1224.55 497.267C1222.82 500.59 1221 503.008 1219.06 504.267C1216.84 505.704 1214.84 506.188 1213.06 505.933M1224.55 497.267L1205.06 470.767C1198.54 480.687 1202.94 504.484 1213.06 505.933M1213.06 505.933C1220.06 512.377 1235.56 530.467 1241.56 551.267C1247.56 572.067 1283.39 573.267 1300.56 571.267C1323.06 568.645 1345.06 556.067 1355.06 547.267C1366.32 537.352 1383.68 518.909 1384.07 473.267M1302.56 435.267C1324.56 427.767 1358.06 437.767 1383.56 457.267C1383.95 462.943 1384.11 468.268 1384.07 473.267M1302.56 435.267C1304.7 437.91 1307.89 442.108 1311.06 446.768M1321.06 465.267C1319.46 460.01 1315.28 452.979 1311.06 446.768M1384.07 473.267C1372.9 463.101 1342.66 443.569 1311.06 446.768" stroke="#3F2200" stroke-width="6"/>
<path d="M1219.06 504.267C1221 503.008 1222.82 500.59 1224.55 497.267C1226.58 493.372 1228.47 488.235 1230.27 482.267C1242.2 495.767 1267.76 526.667 1274.56 542.267C1283.06 561.767 1314.06 555.267 1321.06 551.267C1328.06 547.267 1370.99 538.267 1377.27 467.767C1379.98 469.753 1382.27 471.631 1384.07 473.267C1383.68 518.909 1366.32 537.352 1355.06 547.267C1345.06 556.067 1323.06 568.645 1300.56 571.267C1283.39 573.267 1247.56 572.067 1241.56 551.267C1235.56 530.467 1220.06 512.377 1213.06 505.933C1214.84 506.188 1216.84 505.704 1219.06 504.267Z" fill="#B2B0B0"/>
<path d="M1219.06 504.267C1221 503.008 1222.82 500.59 1224.55 497.267L1205.06 470.767C1198.54 480.687 1202.94 504.484 1213.06 505.933C1214.84 506.188 1216.84 505.704 1219.06 504.267Z" fill="#595959" stroke="#3F2200" stroke-width="6"/>
<path d="M1302.56 435.266C1324.56 427.766 1358.06 437.766 1383.56 457.266C1383.95 462.942 1384.11 468.267 1384.07 473.266C1372.9 463.101 1342.66 443.569 1311.06 446.768C1307.89 442.108 1304.7 437.91 1302.56 435.266Z" fill="#7E7E7E" stroke="#3F2200" stroke-width="6"/>
<path d="M1021.06 449.267C1034.89 450.434 1066.96 458.267 1084.56 480.267C1095.91 494.46 1108.6 509.851 1121.45 521.767M1239.06 564.836C1248.06 584.836 1232.06 594.267 1219.06 606.267C1206.06 618.267 1179.06 691.767 1137.56 699.767C1096.06 707.767 1087.06 703.767 1077.06 690.267C1066.06 675.434 1051.06 636.767 1097.56 629.267C1105.68 627.957 1110.89 623.792 1112.56 622.767M1239.06 564.836C1237.39 561.124 1231.92 556.161 1228.06 553.767M1239.06 564.836C1251.15 569.014 1275.11 573.559 1299.56 569.808C1307.47 568.594 1315.43 566.512 1323.06 563.267C1362.06 546.676 1379.06 535.267 1383.06 468.267C1383.27 464.711 1383.51 461.223 1383.76 457.795M1145.06 538.717C1149.13 540.615 1153.14 541.85 1157.06 542.267C1173.25 543.989 1200.71 543.511 1219.06 549.679M1145.06 538.717C1150.22 533.9 1159.86 521.667 1157.06 511.267C1156.01 507.392 1151.06 493.214 1144.28 474.767M1145.06 538.717C1139.47 536.111 1133.76 532.256 1128.06 527.56M1173.56 311.767C1145.56 287.267 1128.06 290.267 1105.06 297.767C1094.73 301.135 1088.64 309.039 1086.23 318.267M1173.56 311.767C1184.62 310.174 1201.5 307.326 1216.06 303.972M1173.56 311.767C1179.28 316.774 1189.24 325.749 1201.56 337.135M1341.06 487.767C1337.84 477.468 1322.24 458.107 1301.64 435.767M1120.56 326.767C1139.89 338.537 1179.16 371.316 1181.56 408.267C1182.16 417.518 1183.06 426.794 1184.17 435.767M1228.06 553.767C1236.56 525.19 1208.06 514.267 1201.56 507.767C1197.79 503.997 1192.67 486.669 1188.45 463.767M1228.06 553.767C1225.44 552.148 1222.4 550.803 1219.06 549.679M1184.17 435.767L1196.56 457.795C1193.41 456.905 1190.21 456.009 1186.95 455.112M1184.17 435.767C1184.99 442.427 1185.93 448.921 1186.95 455.112M1087.06 275.267C1114.89 276.6 1176.76 273.867 1201.56 252.267C1204.25 249.92 1207.1 247.789 1210.06 245.854M1087.06 275.267C1071.22 275.267 1035.86 277.067 1021.06 284.267C1002.56 293.267 968.057 298.767 960.057 305.267C952.057 311.767 934.057 349.267 927.057 352.267C920.057 355.267 908.057 374.767 913.557 380.767C919.057 386.767 930.057 388.267 933.557 398.267C937.057 408.267 931.557 421.267 942.057 421.267C952.557 421.267 959.057 408.267 966.057 412.267C973.057 416.267 978.557 416.267 981.057 412.267C983.557 408.267 990.057 418.767 995.057 412.267C1000.06 405.767 988.057 394.267 981.057 394.267C974.057 394.267 988.057 387.767 988.557 384.267C988.957 381.467 980.723 376.1 976.557 373.767C975.057 373.267 972.957 370.267 976.557 362.267C981.057 352.267 979.057 339.767 972.557 334.767C966.057 329.767 1004.06 311.767 1024.56 311.767M1087.06 275.267C1092.72 268.433 1105.36 254.267 1110.56 252.267C1117.06 249.767 1127.56 252.267 1136.56 252.267C1142.71 252.267 1148.17 252.267 1153.56 252.267M1024.56 311.767C1023.39 317.767 1021.06 330.767 1021.06 334.767C1021.06 339.767 1056.56 346.518 1087.06 340.642M1024.56 311.767C1037.11 311.767 1058.54 314.305 1074.06 316.468M1086.23 318.267C1084.37 325.43 1084.73 333.389 1087.06 340.642M1086.23 318.267C1083.01 317.758 1078.81 317.131 1074.06 316.468M1087.06 340.642C1088.41 344.853 1090.43 348.826 1093.06 352.267C1100.04 361.395 1116.96 402.815 1131.69 441.229M1074.06 316.468C1066.72 321.734 1048.96 331.967 1036.56 330.767M1181.56 257.267C1181.56 264.767 1190.56 265.767 1196.56 270.767C1202.56 275.767 1196.56 286.767 1201.56 293.267C1205.56 298.467 1212.89 298.433 1216.06 297.767C1215.22 287.433 1212.86 266.567 1210.06 265.767C1206.56 264.767 1193.06 247.267 1187.06 249.767C1181.06 252.267 1169.06 252.267 1161.06 252.267C1158.53 252.267 1156.05 252.267 1153.56 252.267M1244.56 293.267C1237.56 278.267 1223.22 258.658 1210.06 245.854M1244.56 293.267C1248.89 304.433 1254.96 327.567 1244.56 330.767M1244.56 293.267C1237.56 297.767 1230.45 300.656 1216.06 303.972M1210.06 245.854C1222.89 237.458 1237.79 232.774 1251.06 230.356M1244.56 330.767C1250.06 331.433 1260.91 326.767 1262.06 325.314M1244.56 330.767C1241.76 331.626 1238.88 331.374 1236.06 330.342M1216.06 303.972C1216.29 310.104 1221.34 319.315 1228.06 325.314M1262.06 325.314C1264.99 321.606 1276.76 313.446 1280.06 310.223M1262.06 325.314C1264.56 331.481 1280.16 343.167 1288.56 358.767M1299.06 297.767C1294.91 297.767 1287.42 303.019 1280.06 310.223M1280.06 310.223C1286.72 309.709 1300.56 308.989 1302.56 310.223M1301.64 435.767C1334.1 424.967 1369.92 445.952 1383.76 457.795M1301.64 435.767C1295.79 429.428 1289.54 422.85 1283.06 416.17M1383.76 457.795C1388.32 396.64 1398.17 354.817 1355.56 293.267C1334.45 262.784 1315.64 245.703 1301.64 236.787C1294.91 232.501 1289.29 230.101 1285.06 229.006M1251.06 230.356C1262.88 228.203 1273.41 227.847 1280.06 228.267C1281.4 228.267 1283.08 228.493 1285.06 229.006M1251.06 230.356C1254.56 224.66 1261.66 211.367 1262.06 203.767C1264.03 205.742 1267.87 207.097 1272.56 207.478M1258.06 166.767C1259.06 163.954 1267.09 157.373 1276.56 152.267M1276.56 152.267C1261.89 128.155 1218.26 86.3318 1161.06 115.267C1089.56 151.436 1136.56 215.267 1136.56 221.767C1136.56 228.267 1146.06 247.267 1153.56 252.267M1276.56 152.267C1291.84 144.027 1308.37 146.251 1310.06 166.767C1311.91 189.254 1300.74 200.683 1288.56 205.201C1283.06 207.237 1277.36 207.87 1272.56 207.478M1201.56 337.135C1224.6 358.443 1255.89 388.192 1283.06 416.17M1201.56 337.135C1206.47 336.439 1215.38 334.381 1221.78 330.767C1224.49 329.234 1226.75 327.422 1228.06 325.314M1228.06 325.314C1230.55 327.539 1233.27 329.322 1236.06 330.342M1100.06 561.643C1099.72 550.38 1104.86 527.795 1128.06 527.56M1100.06 561.643C1097.79 560.253 1095.44 558.872 1093.06 557.444M1100.06 561.643C1101.77 562.695 1103.45 563.752 1105.06 564.836M1128.06 527.56C1125.85 525.747 1123.65 523.808 1121.45 521.767M1093.06 557.444C1087.76 554.275 1082.28 550.881 1077.06 546.676C1056.88 530.436 1036.16 514.553 1024.56 507.767C998.057 492.267 970.557 457.267 1008.06 433.267C1025.72 421.963 1078.56 429.283 1131.69 441.229M1093.06 557.444C1091.15 546.885 1094.16 524.967 1121.45 521.767M1144.28 474.767C1151.97 479.1 1171.57 482.967 1188.45 463.767M1144.28 474.767C1143.16 471.708 1141.98 468.533 1140.77 465.267M1188.45 463.767C1187.94 460.961 1187.43 458.071 1186.95 455.112M1140.77 465.267C1149.96 469.163 1172.06 472.587 1186.95 455.112M1140.77 465.267C1137.92 457.629 1134.86 449.499 1131.69 441.229M1283.06 416.17C1285.21 405.221 1280.59 391.655 1273.18 378.267C1262.66 359.281 1246.52 340.65 1236.06 330.342M1147.06 631.767C1149.22 642.6 1147.46 665.467 1123.06 670.267M1105.06 564.836C1111.69 569.301 1117.26 574.238 1120.56 581.267C1123.86 593.105 1123.93 615.792 1112.56 622.767M1105.06 564.836C1096.39 570.313 1090.96 574.267 1078.56 574.267C1063.06 574.267 1062.56 639.767 1112.56 622.767M1219.06 549.679C1203.06 544.301 1189.4 551.066 1186.06 561.643C1180.06 580.643 1175.06 599.267 1164.06 603.767M1285.06 229.006L1272.56 207.478M1292.56 156.767C1289.25 157.566 1286.03 158.734 1283.06 160.114M1263.06 192.267C1266.06 192.767 1270.27 189.896 1271.06 186.767C1272.56 180.767 1264.56 180.267 1265.56 174.267C1266.14 170.795 1272.99 164.781 1283.06 160.114M1283.06 160.114C1289.89 162.665 1308.56 175.267 1286.56 191.767" stroke="#3F2200" stroke-width="5"/>
<path d="M1224.55 497.268C1236.01 475.245 1243.29 413.493 1252.56 386.268C1261.89 394.101 1284.96 414.868 1302.56 435.268M1224.55 497.268C1222.82 500.591 1221 503.009 1219.06 504.268C1216.84 505.705 1214.84 506.189 1213.06 505.934M1224.55 497.268L1205.06 470.768C1198.54 480.688 1202.94 504.485 1213.06 505.934M1213.06 505.934C1220.06 512.378 1235.56 530.468 1241.56 551.268C1247.56 572.068 1283.39 573.268 1300.56 571.268C1323.06 568.646 1345.06 556.068 1355.06 547.268C1366.32 537.353 1383.68 518.91 1384.07 473.268M1302.56 435.268C1324.56 427.768 1358.06 437.768 1383.56 457.268C1383.95 462.944 1384.11 468.269 1384.07 473.268M1302.56 435.268C1304.7 437.911 1307.89 442.109 1311.06 446.769C1342.66 443.57 1372.9 463.102 1384.07 473.268" stroke="#3F2200" stroke-width="6"/>
<path d="M892.557 511.267C906.057 509.767 945.557 537.267 950.557 544.767C951.773 546.592 953.083 549.543 954.372 553H957C975.943 551.5 976.057 594.267 988.557 590.767C1001.06 587.267 1027.06 594.267 1021.56 604.767C1017.16 613.167 991.723 614.6 979.557 614.267H977.716C974.629 621.04 966.035 624.764 959.057 623.767C943.457 633.767 909.077 626.586 893.837 621.745C888.024 621.428 869.422 617.783 860.472 615.92C860.018 616.371 859.546 616.804 859.057 617.218C851.057 623.978 828.723 620.035 818.557 617.218C825.759 622.471 828.678 632.828 813.557 634.767C794.057 637.267 751.557 624.267 745.057 621.767C739.857 619.767 748.557 602.6 753.557 594.267C744.39 592.934 726.057 588.967 726.057 583.767C725.799 583.767 726.602 588.673 725.599 593.5C724.906 596.83 723.354 600.123 720 601.743C718.775 602.334 717.309 602.702 715.557 602.767C702.057 603.267 655.557 591.267 652.557 583.767C651.578 581.32 656.75 577.5 655.5 569.5C653 553.5 663.299 544.33 672.057 538.267C685.057 529.267 684.557 527.767 690.557 514.453C696.557 501.138 746.557 478.267 762.057 477.767C777.557 477.267 782.057 481.767 807.057 482.767C832.057 483.767 857.557 504.376 859.057 504.607C870.932 506.596 877.817 511.637 880.057 514.453C884.615 512.864 888.988 511.664 892.557 511.267Z" fill="#FFF0E2"/>
<path d="M961.557 577.267C960.165 571.469 957.321 560.909 954.372 553M851.057 527.767C853.264 526.296 867.375 518.872 880.057 514.453M880.057 514.453C884.614 512.864 888.988 511.664 892.557 511.267C906.057 509.767 945.557 537.267 950.557 544.767C951.773 546.592 953.083 549.543 954.372 553M880.057 514.453C877.817 511.637 870.932 506.596 859.057 504.607M845 503.5C848.855 503.5 855.909 504.08 859.057 504.607M859.057 504.607C857.557 504.376 832.057 483.767 807.057 482.767C782.057 481.767 777.557 477.267 762.057 477.767C746.557 478.267 696.557 501.138 690.557 514.453C684.557 527.767 685.057 529.267 672.057 538.267C663.299 544.33 653 553.5 655.5 569.5C656.75 577.5 651.578 581.32 652.557 583.767C655.557 591.267 702.057 603.267 715.557 602.767C717.309 602.702 718.775 602.334 720 601.743M726.057 583.767C726.457 583.767 719.223 580.767 715.557 579.267M726.057 583.767C726.057 588.967 744.39 592.934 753.557 594.267M726.057 583.767C725.799 583.767 726.602 588.673 725.599 593.5M715.557 579.267C729.038 576.511 752.4 566.2 738 547M715.557 579.267C710.204 578.011 696.6 575.5 685 575.5M753.557 594.267C755.223 592.267 758.957 587.867 760.557 586.267M753.557 594.267C748.557 602.6 739.857 619.767 745.057 621.767C751.557 624.267 794.057 637.267 813.557 634.767C828.678 632.828 825.759 622.471 818.557 617.218M774.557 608.767C783.223 610.1 802.757 613.067 811.557 614.267C814.027 614.604 816.471 615.697 818.557 617.218M818.557 617.218C828.723 620.035 851.057 623.978 859.057 617.218C859.546 616.804 860.018 616.371 860.472 615.92M870.057 583.767C871.483 591.851 869.292 607.17 860.472 615.92M859.057 544.767C850.557 544.934 833.357 547.967 832.557 558.767C831.557 572.267 837.557 578.267 837.057 586.267C836.557 594.267 825.557 604.767 818.557 604.767M860.472 615.92C869.422 617.783 888.024 621.428 893.837 621.745M893.837 621.745C909.077 626.586 943.457 633.767 959.057 623.767C966.035 624.764 974.629 621.04 977.716 614.267M893.837 621.745C888.892 617.497 881.9 605.8 893.5 593M963.057 586.267C978.353 597.552 980.822 607.453 977.716 614.267M720 601.743C720.5 598.828 719.7 592.8 712.5 592M720 601.743C723.354 600.123 724.906 596.83 725.599 593.5M725.599 593.5C725.104 591.511 722.402 587.281 715.557 586.267M954.372 553H957C975.943 551.5 976.057 594.267 988.557 590.767C1001.06 587.267 1027.06 594.267 1021.56 604.767C1017.16 613.167 991.723 614.6 979.557 614.267H977.716M945.557 594.267C938.113 592.034 931.5 594 929.057 590.767C926.613 587.534 928.257 577.267 937.057 577.267C948.057 577.267 953.557 581.767 954.057 586.267C954.457 589.867 953 596.5 945.557 594.267Z" stroke="#3F2200" stroke-width="5"/>
<path d="M909.557 573.266C909.557 573.266 903.35 572.335 899.557 573.266C893.071 574.86 886.057 583.766 886.057 583.766M949.057 573.266C949.057 573.266 957.5 577 960.057 579.766M843.557 509.266C835.557 511.766 818.757 517.966 815.557 522.766M759.557 476.766C758.057 467.766 758.957 445.066 774.557 426.266C794.057 402.766 746.557 399.266 744.057 440.266M728.557 470.767C724.39 456.767 712.857 427.267 700.057 421.267C684.057 413.767 687.057 458.767 703.057 462.767M712.556 480.767C703.056 474.6 683.256 465.166 680.056 476.766C676.856 488.367 687.723 488.933 693.556 487.767" stroke="#3F2200" stroke-width="5"/>
<defs>
<filter id="filter0_d_2113_3178" x="1058.69" y="544.805" width="189.987" height="170.059" filterUnits="userSpaceOnUse" color-interpolation-filters="sRGB">
<feFlood flood-opacity="0" result="BackgroundImageFix"/>
<feColorMatrix in="SourceAlpha" type="matrix" values="0 0 0 0 0 0 0 0 0 0 0 0 0 0 0 0 0 0 127 0" result="hardAlpha"/>
<feOffset dy="4"/>
<feGaussianBlur stdDeviation="2"/>
<feComposite in2="hardAlpha" operator="out"/>
<feColorMatrix type="matrix" values="0 0 0 0 0 0 0 0 0 0 0 0 0 0 0 0 0 0 0.25 0"/>
<feBlend mode="normal" in2="BackgroundImageFix" result="effect1_dropShadow_2113_3178"/>
<feBlend mode="normal" in="SourceGraphic" in2="effect1_dropShadow_2113_3178" result="shape"/>
</filter>
</defs>
</svg>
