<svg width="234" height="458" viewBox="0 0 234 458" fill="none" xmlns="http://www.w3.org/2000/svg">
<path d="M137.92 194.616C132.929 187.965 141.34 180.51 145.499 179.471C140.991 172.196 123.774 164.269 96.3293 175.909C99.7953 176.602 100.999 185.313 100.999 189.471C102.499 201 73.1754 290.836 78.6526 328.686C76.2264 343.93 70.7501 378.365 68.2546 394.163C65.7591 409.96 65.8284 432.617 66.175 441.971H96.3293C97.0225 438.853 98.4089 430.746 98.4089 423.263C98.4089 415.78 118.512 355.708 128.563 326.608H144.159C149.15 369.843 144.16 421.531 141.041 441.971H164.956C165.996 436.774 169.115 422.847 173.275 408.713C177.434 394.578 178.474 349.473 178.474 328.686C178.474 314.136 173.275 293.35 168.076 280.878C163.916 270.901 159.411 256.628 157.678 250.739L137.92 194.616Z" fill="#005975"/>
<path d="M144.159 326.608C149.15 369.843 144.16 421.531 141.041 441.971H164.956C165.996 436.774 169.115 422.847 173.275 408.713C177.434 394.578 178.474 349.473 178.474 328.686C178.474 314.136 173.275 293.35 168.076 280.878C163.916 270.901 159.411 256.628 157.678 250.739L137.92 194.616C132.929 187.965 141.34 180.51 145.499 179.471C140.991 172.196 123.774 164.269 96.3293 175.909C99.7953 176.602 100.999 185.313 100.999 189.471C102.499 201 73.1754 290.836 78.6526 328.686C76.2264 343.93 70.7501 378.365 68.2546 394.163C65.7591 409.96 65.8284 432.617 66.175 441.971H96.3293C97.0225 438.853 98.4089 430.746 98.4089 423.263C98.4089 415.78 118.512 355.708 128.563 326.608H144.159ZM144.159 326.608H149.359" stroke="#3F2200" stroke-width="7"/>
<path d="M130.06 360.5C129.878 361.621 129.691 362.787 129.499 364C125.472 363.245 120.875 362.608 115.999 362.074C111.811 361.615 107.416 361.232 102.999 360.913C98.456 360.586 93.8894 360.327 89.499 360.125C84.1103 359.877 78.9871 359.716 74.499 359.619C70.608 359.535 67.1944 359.5 64.499 359.5C64.499 356.155 65.1704 351.392 66.2415 346C69.9732 327.212 78.5565 300.777 80.499 300C82.999 299 124.999 288 139.999 288C154.999 288 164.499 297 177.999 304C179.573 315.409 185.48 337.031 187.44 354.5C187.971 359.234 188.212 363.662 187.999 367.5C184.839 367.986 179.635 367.808 173.499 367.239C168.798 366.804 163.551 366.14 158.259 365.371C153.328 364.654 148.357 363.846 143.753 363.047C138.517 362.138 133.754 361.24 130.06 360.5Z" fill="#AFAFAF"/>
<path d="M135.999 321.5C133.666 321.833 128.199 322.3 124.999 321.5M135.999 321.5C141.999 320.643 144.999 320 148.999 318.5M135.999 321.5C135.999 330.595 134.748 334.061 131.999 349.21M130.06 360.5C129.878 361.621 129.691 362.787 129.499 364C125.472 363.245 120.875 362.608 115.999 362.074M130.06 360.5C130.645 356.907 131.183 353.77 131.677 351M130.06 360.5C133.754 361.24 138.517 362.138 143.753 363.047M66.2415 346C69.9732 327.212 78.5565 300.777 80.499 300C82.999 299 124.999 288 139.999 288C154.999 288 164.499 297 177.999 304C179.573 315.409 185.48 337.031 187.44 354.5M66.2415 346C65.1704 351.392 64.499 356.155 64.499 359.5C67.1944 359.5 70.608 359.535 74.499 359.619M66.2415 346C68.8712 345.852 72.3762 345.741 76.499 345.717M131.677 351C131.787 350.385 131.894 349.789 131.999 349.21M131.677 351C127.741 350.076 123.647 349.303 119.499 348.659M131.999 349.21C135.529 349.265 139.845 349.372 144.499 349.539M187.44 354.5C187.971 359.234 188.212 363.662 187.999 367.5C184.839 367.986 179.635 367.808 173.499 367.239M187.44 354.5C185.952 353.177 180.339 352.148 172.999 351.361M172.999 351.361C173.499 355.401 174.299 364.231 173.499 367.239M172.999 351.361C168.326 350.861 162.952 350.459 157.499 350.143M173.499 367.239C168.798 366.804 163.551 366.14 158.259 365.371M158.259 365.371C158.506 360.606 158.699 350.889 157.499 350.143M158.259 365.371C153.328 364.654 148.357 363.846 143.753 363.047M157.499 350.143C153.11 349.888 148.669 349.689 144.499 349.539M144.499 349.539C144.668 353.891 144.756 362.684 143.753 363.047M119.499 348.659C118.666 352.989 116.799 361.734 115.999 362.074M119.499 348.659C115.516 348.04 111.485 347.541 107.499 347.141M115.999 362.074C111.811 361.615 107.416 361.232 102.999 360.913M76.499 345.717C75.6657 350.057 74.099 358.914 74.499 359.619M76.499 345.717C81.0328 345.691 86.3136 345.772 91.999 346.029M74.499 359.619C78.9871 359.716 84.1103 359.877 89.499 360.125M91.999 346.029C90.999 350.078 89.099 358.565 89.499 360.125M91.999 346.029C96.9353 346.252 102.177 346.607 107.499 347.141M89.499 360.125C93.8894 360.327 98.456 360.586 102.999 360.913M107.499 347.141L102.999 360.913" stroke="#3F2200" stroke-width="6"/>
<path d="M190 442.516C190.742 435.78 191.759 428.539 185.59 425.733C181.82 424.018 175.008 426.439 175.008 426.439C175.008 426.439 184.247 412.979 182.063 404.091C179.45 393.456 166.611 389.959 154.999 392.375C153.43 392.767 151.116 394.51 149.634 398.499C146.542 395.699 141.45 398.999 139.291 400.999C132.883 408.516 135.063 415.912 134 425.733C132.886 436.021 134 452.233 134 452.233L185.59 453.999C185.59 453.999 189.474 447.291 190 442.516Z" fill="white"/>
<path d="M156.488 436.774C156.488 436.774 156.65 430.331 159.134 427.499C163.231 422.829 175.008 426.439 175.008 426.439M175.008 426.439C175.008 426.439 181.82 424.018 185.59 425.733C191.759 428.539 190.742 435.78 190 442.516C189.474 447.291 185.59 453.999 185.59 453.999L134 452.233C134 452.233 132.886 436.021 134 425.733C135.063 415.912 132.883 408.516 139.291 400.999C141.45 398.999 146.542 395.699 149.634 398.499M175.008 426.439C175.008 426.439 184.247 412.979 182.063 404.091C179.45 393.456 166.611 389.959 154.999 392.375C153.43 392.767 151.116 394.51 149.634 398.499M148.499 412.999C147.785 406.392 148.439 401.716 149.634 398.499" stroke="#3F2200" stroke-width="6"/>
<path d="M122.341 440.556C123.212 432.67 124.407 424.193 117.163 420.908C112.736 418.9 104.736 421.735 104.736 421.735C104.736 421.735 115.585 405.976 113.021 395.571C109.952 383.121 94.8751 379.026 81.2395 381.855C79.3975 382.314 76.6798 384.354 74.9393 389.025C71.3083 385.747 65.3295 389.61 62.794 391.952C55.2685 400.751 57.8289 409.411 56.5804 420.908C55.2723 432.953 56.5804 451.932 56.5804 451.932L117.163 454C117.163 454 121.723 446.146 122.341 440.556Z" fill="white"/>
<path d="M82.9882 433.834C82.9882 433.834 83.1778 426.291 86.095 422.976C90.9068 417.508 104.736 421.735 104.736 421.735M104.736 421.735C104.736 421.735 112.736 418.9 117.163 420.908C124.407 424.193 123.212 432.67 122.341 440.556C121.723 446.146 117.163 454 117.163 454L56.5804 451.932C56.5804 451.932 55.2723 432.953 56.5804 420.908C57.8289 409.411 55.2685 400.751 62.794 391.952C65.3295 389.61 71.3083 385.747 74.9393 389.025M104.736 421.735C104.736 421.735 115.585 405.976 113.021 395.571C109.952 383.121 94.8751 379.026 81.2395 381.855C79.3975 382.314 76.6798 384.354 74.9393 389.025M73.6066 406C72.7679 398.266 73.5359 392.79 74.9393 389.025" stroke="#3F2200" stroke-width="6"/>
<path d="M60.7826 187.359C68.5052 188.447 73.212 185.862 75.1198 182.411C108.135 177.967 174.744 169.57 177.062 171.528C179.959 173.975 191.429 178.854 193.847 161.693C207.462 159.397 207.867 143.672 206.368 136.096L210.143 109.303L45.817 140.836C44.7625 142.405 37.7622 141.984 34.3938 141.578C31.8255 141.646 26.7998 145.23 27.2441 159.027C27.6885 172.825 42.6106 174.069 50.0161 172.966C49.2432 176.434 49.9473 185.833 60.7826 187.359Z" fill="#FF9B00" stroke="#3F2200" stroke-width="7" stroke-linecap="square" stroke-linejoin="bevel"/>
<path d="M124.328 110.429C124.54 111.804 125.726 114.337 128.769 113.475C132.574 112.398 145.898 101.369 153.906 99.2704C160.312 97.5917 161.345 97.3609 161.061 97.4553M77.0803 102.966C83.1375 107.987 96.718 117.994 102.583 117.852C109.913 117.675 109.221 113.947 112.062 113.944" stroke="#3F2200" stroke-width="4"/>
<path d="M181.557 124.78C187.147 122.712 194.958 126.199 198.791 134.439C201.701 140.698 203.032 153.01 180.3 159.222C174.133 190.026 124.918 195.321 100.131 192.86C80.1765 190.879 66.7393 177.06 62.6451 164.978C53.3284 166.153 37.0045 162.356 40.2232 139.486C41.6349 129.466 49.7311 125.839 57.647 125.623C56.1128 98.9636 77.317 79.7078 96.374 73.3269C144.24 57.2998 173.611 85.8346 181.557 124.78Z" fill="#FFC977"/>
<path d="M181.557 124.78C187.147 122.712 194.958 126.199 198.791 134.439C201.701 140.698 203.032 153.01 180.3 159.222M181.557 124.78C183.792 134.438 181.542 150.41 180.3 159.222M181.557 124.78C173.611 85.8346 144.24 57.2998 96.374 73.3269C77.317 79.7078 56.1128 98.9636 57.647 125.623M180.3 159.222C174.133 190.026 124.918 195.321 100.131 192.86C80.1765 190.879 66.7393 177.06 62.6451 164.978M62.6451 164.978C59.802 156.588 59.2635 148.558 58.9193 144.768C58.8864 140.938 58.1197 130.963 57.647 125.623M62.6451 164.978C53.3284 166.153 37.0045 162.356 40.2232 139.486C41.6349 129.466 49.7311 125.839 57.647 125.623" stroke="#3F2200" stroke-width="7" stroke-linejoin="bevel"/>
<path d="M79.8674 124.956C70.197 125.647 65.9312 122.992 64.2162 117.871C65.1559 128.495 61.4837 148.795 45.3213 140.901C44.2659 142.464 37.2515 142.04 33.8762 141.632C24.6966 140.054 8.27919 131.607 16.0465 110.45C3.69096 95.016 18.8042 78.7455 31.7406 83.9914C22.0319 62.7693 43.0492 49.0597 58.1112 57.533C54.6065 33.9298 80.1366 19.5544 95.7139 33.3028C105.546 5.93356 147.736 9.90927 159.994 35.087C180.619 25.2402 214.056 45.6971 204.672 75.9014C230.639 82.6945 221.314 100.346 213.126 106.895C227.927 117.111 218.214 139.019 197.681 136.126C186.618 134.567 186.774 126.006 184.206 121.936C182.98 125.217 181.273 126.381 175.466 126.633C163.856 127.137 162.074 113.362 163.346 104.33C161.797 108.249 153.279 115.097 139.105 113.785C124.93 112.473 118.228 98.8799 115.526 93.7922C114.955 97.8482 113.046 112.458 106.747 114.756C99.1895 117.513 91.9612 114.055 91.452 110.37L91.4441 110.426C90.8489 114.652 89.4946 124.267 79.8674 124.956Z" fill="#FF9B00"/>
<path d="M41.7477 125.197C40.3344 129.229 39.504 137.115 45.3213 140.901M64.2162 117.871C65.9312 122.992 70.197 125.647 79.8674 124.956C89.5377 124.264 90.8608 114.566 91.452 110.37C91.9612 114.055 99.1895 117.513 106.747 114.756C113.046 112.458 114.955 97.8482 115.526 93.7922C118.228 98.8799 124.93 112.473 139.105 113.785C153.279 115.097 161.797 108.249 163.346 104.33M64.2162 117.871C65.1559 128.495 61.4837 148.795 45.3213 140.901M64.2162 117.871C62.9553 113.414 61.19 101.5 64.2162 89.5M163.346 104.33C162.074 113.362 163.856 127.137 175.466 126.633C181.273 126.381 182.98 125.217 184.206 121.936M163.346 104.33C164.243 98.8869 167.923 88.3 175.466 89.5M184.895 120.236C184.714 120.563 184.493 121.168 184.206 121.936M74.7111 182.374C72.8019 185.813 68.0877 188.388 60.3491 187.298C49.4915 185.768 48.7793 176.396 49.5513 172.939C42.132 174.033 27.1797 172.782 26.7247 159.025C26.2698 145.268 31.3028 141.698 33.8762 141.632M33.8762 141.632C24.6966 140.054 8.27919 131.607 16.0465 110.45C3.69096 95.016 18.8042 78.7455 31.7406 83.9914M33.8762 141.632C37.2515 142.04 44.2659 142.464 45.3213 140.901M31.7406 83.9914C22.0319 62.7693 43.0492 49.0597 58.1112 57.533C54.6065 33.9298 80.1366 19.5544 95.7139 33.3028C105.546 5.93356 147.736 9.90927 159.994 35.087M31.7406 83.9914C32.9934 88.3276 36.999 97.3 42.999 98.5M159.994 35.087C180.619 25.2402 214.056 45.6971 204.672 75.9014C230.639 82.6945 221.314 100.346 213.126 106.895C227.927 117.111 218.214 139.019 197.681 136.126C186.618 134.567 186.774 126.006 184.206 121.936M159.994 35.087C161.111 37.558 163.346 44.5 163.346 52.5" stroke="#3F2200" stroke-width="7" stroke-linecap="square" stroke-linejoin="bevel"/>
<path d="M114.834 78.75C116.138 76.218 118.972 72.9064 123.245 71.1728M197.789 86.4437C197.348 71.0432 183.324 71.3573 176.368 73.4394C170.726 64.2568 153.319 54.6145 140.504 73.1797C133.346 69.2807 127.561 69.4217 123.245 71.1728M123.245 71.1728C125.843 64.3234 119.443 51.8381 103.993 57.2514C102.835 42.3085 71.5235 38.6954 69.3022 63.1479" stroke="#3F2200" stroke-width="7" stroke-linecap="round" stroke-linejoin="round"/>
<path d="M93.9895 151.765C94.1752 153.313 95.656 155.985 100.094 154.286C105.642 152.162 111.31 146.319 118.889 146.972C126.468 147.624 139.335 147.061 142.481 145.73C147.633 143.55 148.639 140.233 150.358 138.538" stroke="#3F2200" stroke-width="4" stroke-linecap="round" stroke-linejoin="round"/>
<path d="M83.6617 137.261C81.1849 136.538 80.6577 129.984 80.7037 126.798C86.1773 125.868 92.5823 125.298 99.4041 125.624C100.106 127.506 98.8095 130.797 98.0736 132.207C93.2292 133.421 88.1697 135.309 83.6617 137.261Z" fill="#3F2200"/>
<path d="M65.1904 131.09C68.0224 129.835 73.5727 128.01 80.7037 126.798M102.199 125.807C101.26 125.728 100.328 125.668 99.4041 125.624M71.5305 143.288C74.0999 141.797 78.5224 139.487 83.6617 137.261M101.813 131.405C100.59 131.619 99.3393 131.89 98.0736 132.207M80.7037 126.798C80.6577 129.984 81.1849 136.538 83.6617 137.261M80.7037 126.798C86.1773 125.868 92.5823 125.298 99.4041 125.624M83.6617 137.261C88.1697 135.309 93.2292 133.421 98.0736 132.207M98.0736 132.207C98.8095 130.797 100.106 127.506 99.4041 125.624" stroke="#3F2200" stroke-width="4" stroke-linecap="round" stroke-linejoin="round"/>
<path d="M151.094 128.358C153.262 126.916 153.192 123.63 152.19 120.58C145.412 119.625 138.907 119.549 132.435 121.921C132.326 123.942 134.563 126.715 135.696 127.849C140.726 127.554 146.166 127.842 151.094 128.358Z" fill="#3F2200"/>
<path d="M168.047 123.223C164.942 122.872 160.165 121.704 152.19 120.58M129.799 122.94C130.679 122.582 131.559 122.242 132.435 121.921M164.588 130.491C161.666 129.833 156.712 128.947 151.094 128.358M131.854 128.205C133.096 128.042 134.382 127.926 135.696 127.849M152.19 120.58C153.192 123.63 153.262 126.916 151.094 128.358M152.19 120.58C145.412 119.625 138.907 119.549 132.435 121.921M151.094 128.358C146.166 127.842 140.726 127.554 135.696 127.849M135.696 127.849C134.563 126.715 132.326 123.942 132.435 121.921" stroke="#3F2200" stroke-width="4" stroke-linecap="round" stroke-linejoin="round"/>
<path d="M164.059 426.624C163.321 423.684 158.922 418.686 150.774 422.213C140.59 426.623 138.373 434.561 141.029 436.765C143.686 438.97 149.446 424.859 164.059 426.624ZM164.059 426.624L162.726 435.882M164.059 426.624C164.501 424.125 167.512 419.744 176.014 422.213M168.486 435C168.634 432.502 169.549 427.24 172.029 426.182M179.999 426.624C177.342 427.504 176.368 432.178 176.014 435" stroke="#3F2200" stroke-width="5"/>
<path d="M92.2689 422.326C91.4018 419.019 86.233 413.396 76.6599 417.365C64.6934 422.325 62.0881 431.256 65.2098 433.736C68.3315 436.216 75.0997 420.341 92.2689 422.326ZM92.2689 422.326L90.7035 432.743M92.2689 422.326C92.7892 419.515 96.3271 414.587 106.316 417.365M97.4717 431.751C97.6452 428.939 98.7204 423.02 101.634 421.829M110.999 422.327C107.877 423.317 106.733 428.576 106.316 431.751" stroke="#3F2200" stroke-width="5"/>
<path d="M92.0436 200H126.044C132.877 201.333 138.144 193.6 140.544 196C143.544 199 193.999 321.237 183.471 324C172.944 326.764 160.971 315.999 147.971 312.5C134.971 309 126.999 312 112.499 316C97.9992 320 57.5436 338.5 62.0436 332.5C65.6436 327.7 83.5436 242.166 92.0436 200Z" fill="white" stroke="#3F2200" stroke-width="5"/>
<path d="M116.499 190.5C112.899 190.5 104.999 193.5 98.499 193.5C91.499 193.5 92.999 192.5 89.499 195.5C86.699 197.9 73.6657 271.832 68.999 309.499C73.8324 310.332 85.299 311.099 92.499 307.499C101.499 302.999 134.999 297.499 135.999 291.499C136.999 285.499 122.999 222.5 122.999 217.5C122.999 212.5 120.999 190.5 116.499 190.5Z" fill="#B4B4B4" stroke="#3F2200" stroke-width="6"/>
<path d="M65.9867 306.921C65.9867 260.152 88.6685 219.495 93.498 211.5C96.5584 206.433 106.47 216.032 106.997 233.999C107.333 245.442 101.34 254.485 101.34 257.034C101.34 269.506 93.0216 298.606 90.942 304.842C88.8624 311.078 96.141 313.157 101.34 318.353C106.539 323.55 101.34 326.668 90.942 329.785C89.2783 343.089 78.4644 340.871 73.2653 338.1C67.0265 333.943 68.0663 333.943 65.9867 306.921Z" fill="#FFC977" stroke="#3F2200" stroke-width="7"/>
<path d="M127.497 190.999C127.097 188.999 146.999 195.499 150.999 190.999C157.999 195.999 145.028 202.733 154.487 218.498C163.487 233.498 187.987 308.498 184.987 304.998C181.987 301.498 147.976 296.498 148.476 290.998C148.976 285.498 142.788 240 134.499 217.5C130.999 208 127.997 193.499 127.497 190.999Z" fill="#B4B4B4" stroke="#3F2200" stroke-width="6"/>
<path d="M74.9975 309L71.9975 317.5C68.4971 319 68.4975 317 61.9984 321C56.2855 324.516 68.4981 281.5 69.4981 264C70.2981 250 83.4981 226 89.4994 208.5C93.8327 210.167 102.799 206.9 105.999 216.5C109.999 228.5 105.498 251.5 103.498 259C101.898 265 93.498 290.5 95.4998 309L79.4998 315.5L74.9975 309Z" fill="white" stroke="#3F2200" stroke-width="6"/>
<path d="M141.999 217C143.332 219.833 146.099 226 146.499 228M148.999 238.5C149.999 241.667 151.999 248.3 151.999 249.5M153.999 261C154.499 263.667 155.499 269.7 155.499 272.5" stroke="#3F2200" stroke-width="5"/>
<path d="M115.999 226C115.999 230.5 117.1 239 117.5 241M120 251.5C121 254.667 123 261.3 123 262.5M125 274C125.5 276.667 126.5 282.7 126.5 285.5" stroke="#3F2200" stroke-width="5"/>
<path d="M191.479 286.505C187.479 294.505 165 294.922 149 290C142.499 288 127.499 280.2 127.499 271C127.499 261.8 133.501 245.5 157.507 244C160.576 246.455 164.833 250.4 168.684 255C169.225 247.8 162.134 229.832 157.507 223.5L154.501 210.5C186.001 238.505 196.481 276.5 191.479 286.505Z" fill="white"/>
<path d="M157.507 244C133.501 245.5 127.499 261.8 127.499 271C127.499 280.2 142.499 288 149 290C165 294.922 187.479 294.505 191.479 286.505C196.481 276.5 186.001 238.505 154.501 210.5L157.507 223.5C162.134 229.832 169.225 247.8 168.684 255M157.507 244C160.576 246.455 164.833 250.4 168.684 255M157.507 244C159.84 248.833 166.2 265.4 165 271M178.007 276.5C178.952 269.647 174.243 261.641 168.684 255" stroke="#3F2200" stroke-width="6"/>
<path d="M133.999 283L150.499 215.5L160.999 172L144.499 146" stroke="white" stroke-width="6"/>
<path d="M147.999 297L120.999 293.5L123.999 214L150.999 218.109L169.999 221L147.999 297Z" fill="#E0E0E0" stroke="#3F2200" stroke-width="6"/>
<path d="M147.999 297.001L120.999 293.501L123.263 233.501C127.508 233.001 138.399 232.801 147.999 236.001C157.599 239.201 163.771 237.334 165.657 236.001L147.999 297.001Z" fill="#EB5500" stroke="#3F2200" stroke-width="6"/>
<path opacity="0.5" d="M133.999 283L150.499 215.5" stroke="#ADADAD" stroke-width="6"/>
<path d="M145.5 252.498C151.999 247.999 158.489 255.471 161.5 254.73C163.431 253.544 167.73 252.218 169.466 256.397C171.637 261.62 170.498 282.639 157.025 282.634C140.681 282.629 125.857 266.098 145.5 252.498Z" fill="#FFC977" stroke="#3F2200" stroke-width="6"/>
<path d="M169.999 221L150.999 218.109L123.999 214" stroke="#3F2200" stroke-width="6"/>
</svg>
