<svg width="200" height="201" viewBox="0 0 200 201" fill="none" xmlns="http://www.w3.org/2000/svg">
<g filter="url(#filter0_d_3737_3682)">
<rect x="20" y="4.26562" width="160" height="160" rx="80" fill="url(#paint0_radial_3737_3682)"/>
<rect x="22.5" y="6.76562" width="155" height="155" rx="77.5" stroke="#D98F00" stroke-width="5"/>
<path d="M77.1935 130.145C82.4716 130.97 85.1657 127.602 85.8529 125.815C86.681 122.615 85.4373 105.305 80.2828 104.893C76.1593 104.563 65.9214 108.12 61.3179 109.939C60.0808 110.146 57.8953 112.207 59.0499 118.805C60.2045 125.403 67.5032 124.99 71.0082 123.959C70.8707 125.678 71.9154 129.32 77.1935 130.145Z" fill="#FF9B00"/>
<path fill-rule="evenodd" clip-rule="evenodd" d="M71.4749 108.288C67.8849 109.346 64.225 110.672 61.9611 111.567L61.6055 111.665C61.621 111.663 61.6283 111.661 61.6285 111.662C61.6297 111.666 61.251 111.793 60.9076 112.636C60.5183 113.591 60.2294 115.393 60.7737 118.503C61.0045 119.822 61.5174 120.688 62.1301 121.282C62.7574 121.889 63.585 122.302 64.566 122.544C66.5759 123.039 68.9458 122.742 70.5143 122.28L72.7526 124.099C72.7147 124.572 72.8446 125.487 73.4796 126.35C74.078 127.163 75.2251 128.066 77.4636 128.416C81.6159 129.064 83.643 126.547 84.1803 125.284C84.3038 124.695 84.3846 123.295 84.308 121.322C84.2301 119.314 83.9988 116.918 83.5884 114.615C83.1742 112.291 82.5954 110.166 81.8656 108.641C81.0702 106.979 80.4107 106.658 80.1432 106.637C79.3585 106.574 78.137 106.695 76.5635 107.003C75.024 107.305 73.2702 107.759 71.4749 108.288ZM75.891 103.568C77.5407 103.246 79.1453 103.046 80.4223 103.148C82.7321 103.333 84.161 105.33 85.0226 107.13C85.9498 109.067 86.5966 111.546 87.0341 114.001C87.4755 116.478 87.7219 119.035 87.8054 121.186C87.8858 123.258 87.8258 125.176 87.5471 126.253L87.4862 126.443C86.5833 128.791 83.2183 132.857 76.9233 131.874C73.8836 131.399 71.8694 130.068 70.6603 128.424C70.0967 127.658 69.7292 126.852 69.5106 126.084C67.776 126.362 65.6966 126.427 63.7292 125.942C62.303 125.591 60.8704 124.934 59.695 123.796C58.5049 122.643 57.6725 121.086 57.3261 119.107C56.7157 115.619 56.9423 113.092 57.6664 111.315C58.3513 109.634 59.5319 108.558 60.8156 108.256C63.1636 107.333 66.8487 106.003 70.4857 104.931C72.3408 104.385 74.2073 103.898 75.891 103.568Z" fill="#3F2200"/>
<path d="M133.887 95.2975C135.933 93.0296 142 91.3438 144.403 95.0535C146.227 97.8712 147.701 103.713 137.186 108.249C136.307 123.508 112.989 129.401 100.897 129.897C91.1628 130.297 83.7615 124.552 80.9728 119.009C76.5702 120.207 64.4882 122.39 69.7664 109.524C70.7973 107.484 73.8075 103.243 77.6011 102.601C78.136 95.3063 81.1096 86.2526 90.1779 82.6253C105.641 76.4399 121.929 78.4865 133.887 95.2975Z" fill="#FFC977"/>
<path fill-rule="evenodd" clip-rule="evenodd" d="M112.93 82.0375C105.867 80.3048 98.3082 81.2582 90.8281 84.2503C82.6974 87.5025 79.8638 95.676 79.3466 102.73C79.1636 105.227 79.2823 107.493 79.5312 109.197C79.5567 109.306 79.5833 109.421 79.6112 109.542C80.0583 111.475 80.8378 114.846 82.5363 118.222C85.0351 123.189 91.819 128.519 100.826 128.149C106.692 127.908 115.31 126.348 122.513 123.021C129.768 119.669 135.031 114.807 135.436 108.198C135.432 104.053 134.83 99.9764 132.44 96.2817C126.675 88.19 119.96 83.7621 112.93 82.0375ZM136.165 95.7023C137.915 98.9138 138.618 102.265 138.845 105.493C142.079 103.692 143.327 101.892 143.746 100.502C144.26 98.7993 143.692 97.176 142.934 96.0049M138.837 109.425C143.706 107.136 146.226 104.401 147.097 101.512C148.019 98.4557 146.938 95.7493 145.872 94.1026L145.872 94.1023C144.167 91.4698 141.237 90.9132 138.809 91.1958C137.186 91.3847 135.535 91.966 134.214 92.7928C128.256 85.0089 121.259 80.4768 113.764 78.6383C105.828 76.6914 97.5114 77.8073 89.5282 81.0006C80.0668 84.7852 76.7679 93.8732 75.9697 101.223C74.1361 101.864 72.5847 103.092 71.3926 104.319C69.9002 105.856 68.7907 107.575 68.2046 108.735L68.1475 108.86C66.7702 112.218 66.3691 114.943 66.9908 117.089C67.6542 119.38 69.3579 120.628 71.216 121.211C73.003 121.771 75.0367 121.765 76.8019 121.582C77.9907 121.46 79.1287 121.25 80.098 121.03C83.5792 126.714 91.2114 132.047 100.969 131.646C107.195 131.39 116.281 129.755 123.981 126.198C131.288 122.822 137.86 117.452 138.837 109.425ZM78.4907 117.792C77.2195 114.75 76.5715 111.938 76.2048 110.347C76.1697 110.195 76.1371 110.053 76.1068 109.924L76.0799 109.783C75.8847 108.478 75.7606 106.919 75.7579 105.209C75.1183 105.62 74.4945 106.149 73.9032 106.758C72.7114 107.985 71.8139 109.371 71.3588 110.254C70.1229 113.29 70.058 115.098 70.3527 116.116C70.6077 116.997 71.2101 117.541 72.263 117.871C73.387 118.223 74.8695 118.263 76.4429 118.101C77.1506 118.028 77.8452 117.918 78.4907 117.792ZM136.165 95.7023C136.967 95.2204 138.058 94.8069 139.214 94.6723C140.931 94.4725 142.236 94.9277 142.934 96.0047" fill="#3F2200"/>
<path fill-rule="evenodd" clip-rule="evenodd" d="M130.082 107.556C130.806 107.959 131.067 108.872 130.664 109.596L129.634 111.452C129.231 112.176 128.318 112.437 127.594 112.034C126.87 111.632 126.609 110.719 127.011 109.995L128.042 108.139C128.444 107.415 129.357 107.154 130.082 107.556ZM125.835 108.224C126.531 108.672 126.733 109.6 126.285 110.297L124.43 113.184C123.982 113.88 123.054 114.082 122.357 113.634C121.66 113.186 121.458 112.258 121.906 111.561L123.762 108.675C124.21 107.978 125.138 107.776 125.835 108.224ZM97.9454 112.52C98.661 112.937 98.9027 113.856 98.4852 114.572L97.042 117.046C96.6246 117.761 95.7061 118.003 94.9905 117.586C94.275 117.168 94.0332 116.25 94.4507 115.534L95.8939 113.06C96.3113 112.344 97.2298 112.103 97.9454 112.52ZM102.558 112.568C103.247 113.027 103.433 113.958 102.974 114.648L100.912 117.74C100.452 118.43 99.5209 118.616 98.8317 118.156C98.1424 117.697 97.9561 116.766 98.4156 116.076L100.477 112.984C100.937 112.294 101.868 112.108 102.558 112.568Z" fill="#3F2200"/>
<path fill-rule="evenodd" clip-rule="evenodd" d="M96.1119 111.07C94.8957 111.822 93.2801 112.662 91.3232 112.743C89.8058 112.806 88.5245 111.627 88.4614 110.11C88.3983 108.592 89.5774 107.311 91.0948 107.248C91.6121 107.226 92.2386 106.998 93.2195 106.392C93.6053 106.153 93.9807 105.899 94.4109 105.608C94.5273 105.53 94.6477 105.448 94.7733 105.364C95.3326 104.987 95.9739 104.565 96.6618 104.187C98.0506 103.423 99.8087 102.735 101.92 102.878C104.038 103.022 106.115 103.974 108.221 105.719C109.39 106.688 109.553 108.421 108.584 109.591C107.615 110.76 105.881 110.923 104.712 109.954C103.209 108.709 102.194 108.41 101.547 108.366C100.895 108.321 100.217 108.508 99.3124 109.006C98.8534 109.259 98.3833 109.564 97.8432 109.927C97.7453 109.993 97.6434 110.062 97.5385 110.133C97.0981 110.431 96.6033 110.766 96.1119 111.07Z" fill="#3F2200"/>
<path fill-rule="evenodd" clip-rule="evenodd" d="M120.848 105.44C120.462 105.57 120.03 105.826 119.572 106.42C118.646 107.623 116.919 107.847 115.716 106.92C114.512 105.994 114.288 104.267 115.215 103.064C116.304 101.65 117.624 100.722 119.094 100.227C120.525 99.7455 121.941 99.7272 123.179 99.8731C124.407 100.018 125.574 100.339 126.536 100.629C126.861 100.726 127.151 100.816 127.416 100.899C128.015 101.085 128.486 101.231 128.942 101.337C130.422 101.679 131.343 103.157 131 104.636C130.657 106.116 129.18 107.037 127.7 106.694C127.033 106.54 126.266 106.302 125.589 106.091C125.364 106.022 125.15 105.955 124.951 105.895C124.058 105.626 123.267 105.421 122.536 105.335C121.815 105.25 121.272 105.297 120.848 105.44Z" fill="#3F2200"/>
<path d="M118.982 116.664C116.673 116.004 108.467 116.045 107.436 119.344C106.611 125.529 109.498 131.302 113.621 130.89C117.745 130.478 121.868 117.488 118.982 116.664Z" fill="#3F2200"/>
<path fill-rule="evenodd" clip-rule="evenodd" d="M109.629 119.945C109.342 122.526 109.81 124.912 110.666 126.547C111.576 128.284 112.616 128.729 113.397 128.651C113.397 128.651 113.398 128.651 113.399 128.65C113.438 128.636 113.951 128.451 114.774 127.3C115.538 126.232 116.262 124.751 116.806 123.191C117.352 121.622 117.658 120.141 117.693 119.101C117.698 118.944 117.697 118.811 117.692 118.699C116.639 118.558 114.835 118.5 113.036 118.748C111.924 118.901 110.984 119.151 110.326 119.468C110.004 119.623 109.806 119.767 109.694 119.875C109.666 119.902 109.645 119.926 109.629 119.945ZM112.422 114.29C115.079 113.924 118.045 114.056 119.6 114.5C120.902 114.872 121.568 115.899 121.868 116.738C122.159 117.55 122.218 118.447 122.19 119.252C122.135 120.892 121.694 122.839 121.055 124.672C120.413 126.514 119.514 128.409 118.435 129.918C117.454 131.289 115.915 132.922 113.845 133.129C110.503 133.463 108.038 131.228 106.68 128.635C105.301 126.003 104.74 122.535 105.206 119.047C105.222 118.92 105.25 118.795 105.288 118.673C105.812 116.998 107.16 115.998 108.374 115.413C109.617 114.815 111.066 114.477 112.422 114.29Z" fill="#3F2200"/>
<path d="M107.383 122.589C107.877 127.138 110.363 130.673 113.62 130.347C114.682 130.241 115.744 129.301 116.686 127.949C117.006 126.506 116.984 121.764 113.62 121.146C110.929 120.651 108.341 121.902 107.383 122.589Z" fill="#FFA928"/>
<path d="M75.3375 104.784C75.2001 106.502 73.6882 109.815 68.7399 109.32C67.9858 109.245 67.3402 109.066 66.7893 108.809C66.3864 109.634 62.9735 109.906 61.3174 109.939C56.7815 109.801 48.2869 106.846 50.5961 96.1247C43.5862 89.527 49.7715 80.6615 56.3692 82.3109C48.9432 72.853 58.2212 60.071 67.293 62.7513C63.9979 51.6167 75.3375 42.9573 83.7872 48.5241C86.6704 34.6696 107.295 33.7212 114.92 45.0201C124.201 38.8756 141.723 46.4623 139.249 61.6523C152.238 63.1626 148.939 77.3218 145.434 81.033C153.269 84.9503 155.949 97.1556 145.846 97.1556C140.403 97.1556 136.012 93.5819 134.496 91.795C134.128 93.4589 133.374 96.64 130.589 97.1556C125.023 98.1865 122.964 94.0629 121.521 91.795C121.04 93.788 117.724 99.465 110.796 99.7949C103.869 100.125 99.4602 94.0629 97.8108 91.795C97.8108 93.788 97.2335 98.3514 94.9243 100.661C92.6151 102.97 89.1513 103.272 87.7081 103.135C87.7081 105.196 86.5535 109.567 81.9351 110.557C77.3168 111.547 75.6124 107.121 75.3375 104.784Z" fill="#FF9B00"/>
<path fill-rule="evenodd" clip-rule="evenodd" d="M97.7253 39.0827C91.7889 39.5934 86.7409 42.9196 85.5005 48.8802L82.8244 49.9851C79.3326 47.6846 75.2239 48.2784 72.2472 50.726C69.2853 53.1615 67.5322 57.3923 68.9711 62.2543L66.7971 64.4292C63.2352 63.3768 59.3731 65.3128 57.1287 68.906C54.9311 72.4242 54.5571 77.1687 57.7456 81.2298L55.9447 84.0083C51.2288 82.8293 45.9985 89.3939 51.7955 94.85L52.3069 96.4928C51.2713 101.301 52.6697 104.049 54.5405 105.682C56.5307 107.418 59.3245 108.118 61.3274 108.188C61.8807 108.175 62.6266 108.135 63.3671 108.056C62.9058 107.343 62.5958 106.571 62.3988 105.819C61.9516 104.11 62.038 102.361 62.2818 101.142L62.625 99.4257L66.0571 100.112L65.7139 101.828C65.55 102.648 65.5002 103.846 65.7847 104.932C66.061 105.988 66.6022 106.79 67.5291 107.223C67.8838 107.388 68.3354 107.52 68.9141 107.578C70.9442 107.781 72.0287 107.202 72.6257 106.624C73.285 105.986 73.5525 105.151 73.5931 104.644L77.0755 104.579C77.1876 105.532 77.5996 106.873 78.3647 107.813C78.7305 108.262 79.1472 108.585 79.6217 108.767C80.0859 108.945 80.7099 109.03 81.5685 108.846C83.3285 108.468 84.3885 107.478 85.0446 106.361C85.7308 105.193 85.9581 103.9 85.9581 103.134L87.874 101.392C88.392 101.442 89.4136 101.417 90.5512 101.121C91.6813 100.827 92.8139 100.296 93.6869 99.4228C94.5178 98.5919 95.1375 97.2284 95.5389 95.6718C95.9319 94.1484 96.0608 92.6571 96.0608 91.7946L99.2261 90.7653C100.049 91.8963 101.447 93.809 103.424 95.4078C105.39 96.9964 107.815 98.1845 110.713 98.0465C113.676 97.9054 115.849 96.6319 117.355 95.1647C118.909 93.6514 119.667 92.0159 119.82 91.384L122.998 90.8551C123.123 91.052 123.246 91.2493 123.368 91.4459C124.033 92.5155 124.685 93.5622 125.644 94.3802C126.652 95.2394 128.029 95.8496 130.271 95.4345C130.968 95.3055 131.481 94.8585 131.913 94.0673C132.363 93.2425 132.601 92.2568 132.788 91.4162C132.795 91.3822 132.803 91.3457 132.812 91.3071C132.877 91.0091 132.968 90.5908 133.08 90.3008L133.708 88.6674L136.974 89.9237L136.441 91.3097C138.151 92.9693 141.696 95.4052 145.846 95.4052C148.021 95.4052 149.2 94.7586 149.825 94.0394C150.466 93.3014 150.784 92.1872 150.627 90.7529C150.307 87.8194 148.052 84.2979 144.651 82.5978L144.162 79.831C144.798 79.1576 145.555 77.8414 146.106 76.1178C146.649 74.4214 146.94 72.4907 146.783 70.667C146.627 68.8504 146.036 67.2214 144.897 65.9771C143.772 64.7478 141.961 63.7291 139.047 63.3902L137.522 61.3706C138.624 54.6008 135.319 49.5715 130.616 46.85C125.813 44.0702 119.844 43.8586 115.886 46.4789L113.469 45.9987C110.081 40.9777 103.695 38.5692 97.7253 39.0827ZM135.35 94.9928C135.241 95.2443 135.12 95.4963 134.985 95.7437C134.251 97.088 132.996 98.4894 130.908 98.876C127.583 99.4918 125.147 98.5556 123.374 97.0438C122.752 96.5139 122.216 95.912 121.755 95.3143C121.233 96.0988 120.581 96.9088 119.797 97.6718C117.793 99.6238 114.844 101.354 110.88 101.543C106.851 101.734 103.608 100.056 101.224 98.1297C100.407 97.4694 99.6784 96.7693 99.0399 96.0887C99.0047 96.2405 98.9675 96.3931 98.928 96.546C98.4636 98.3466 97.64 100.419 96.1617 101.898C94.7255 103.334 92.9716 104.108 91.4318 104.508C90.6741 104.705 89.9409 104.819 89.2814 104.873C89.0838 105.895 88.7041 107.042 88.0624 108.134C86.9867 109.965 85.1602 111.655 82.3018 112.268C80.8512 112.579 79.5302 112.481 78.3674 112.035C77.2148 111.592 76.3223 110.848 75.6503 110.022C75.4252 109.746 75.2216 109.456 75.0381 109.16C73.6079 110.532 71.4693 111.351 68.5658 111.061C68.0383 111.008 67.5397 110.913 67.0706 110.777C66.9023 110.858 66.7352 110.924 66.5794 110.979C66.0313 111.172 65.3956 111.304 64.7959 111.399C63.6862 111.574 62.461 111.656 61.5875 111.682C61.4809 111.743 61.1827 111.959 60.9072 112.635C60.5179 113.59 60.229 115.392 60.7733 118.502C61.0041 119.821 61.5171 120.687 62.1297 121.28C62.757 121.888 63.5847 122.301 64.5657 122.542C66.5755 123.037 68.9454 122.741 70.514 122.279L72.7522 124.098C72.7144 124.571 72.8442 125.486 73.4792 126.349C74.0777 127.162 75.2248 128.065 77.4632 128.415C81.7245 129.08 83.7476 126.412 84.2192 125.186L84.8474 123.552L88.1141 124.809L87.4859 126.442C86.5829 128.79 83.2179 132.856 76.9229 131.873C73.8832 131.398 71.869 130.066 70.6599 128.423C70.0964 127.657 69.7289 126.851 69.5102 126.083C67.7756 126.361 65.6962 126.425 63.7288 125.941C62.3027 125.59 60.8701 124.933 59.6947 123.795C58.5045 122.642 57.6722 121.085 57.3257 119.105C56.7154 115.618 56.9419 113.09 57.666 111.314C57.6879 111.26 57.7104 111.207 57.7333 111.154C55.8734 110.655 53.8988 109.767 52.2392 108.319C49.4649 105.898 47.7989 102.107 48.7043 96.7004C42.6725 90.1698 46.7823 81.6507 53.1955 80.4843C51.0189 75.8194 51.8064 70.8201 54.1602 67.0518C56.5 63.3059 60.5828 60.5178 65.0695 60.6386C64.432 55.4263 66.5906 50.846 70.0243 48.0226C73.4667 45.1921 78.2575 44.0967 82.6959 45.9624C85.0298 39.5101 91.1066 36.1392 97.4253 35.5956C103.889 35.0396 111.014 37.3788 115.394 42.7288C120.562 40.1463 127.204 40.8317 132.369 43.8207C137.727 46.9213 141.751 52.6398 141.183 60.1999C143.9 60.7928 145.982 61.9792 147.479 63.6138C149.265 65.5651 150.066 67.991 150.27 70.3669C150.474 72.7357 150.095 75.135 149.44 77.1844C149.053 78.3919 148.552 79.5364 147.973 80.5143C151.434 82.9339 153.716 86.7987 154.106 90.373C154.336 92.4796 153.92 94.6616 152.467 96.3345C150.998 98.0262 148.724 98.9052 145.846 98.9052C141.457 98.9052 137.738 96.8804 135.35 94.9928Z" fill="#3F2200"/>
<path d="M127.15 114.874C125.656 117.85 131.329 117.656 130.162 120.791C127.867 126.955 140.174 128.392 143.292 124.681C145.615 121.916 144.703 119.921 143.655 118.128C143.189 117.333 144.298 113.151 148.892 108.953C152.378 105.4 147.036 102.376 144.659 105.118C140.428 109.999 140.166 116.02 138.196 115.466C136.227 114.911 140.004 107.588 137.873 104.807C136.366 102.839 133.392 103.716 132.708 105.119C130.882 108.862 135.245 109.45 133.56 117.347C133.194 115.715 129.123 110.946 127.15 114.874Z" fill="white"/>
<path fill-rule="evenodd" clip-rule="evenodd" d="M148.392 105.488C147.527 104.869 146.199 104.869 145.415 105.773C143.419 108.076 142.347 110.659 141.504 112.71C141.491 112.742 141.478 112.774 141.465 112.806C141.075 113.756 140.697 114.676 140.279 115.316C140.059 115.653 139.77 116.006 139.376 116.24C138.94 116.5 138.438 116.572 137.925 116.428C137.293 116.25 136.929 115.781 136.759 115.289C136.606 114.846 136.592 114.349 136.616 113.903C136.658 113.122 136.848 112.149 137.033 111.196C137.06 111.058 137.087 110.92 137.113 110.783C137.33 109.654 137.524 108.537 137.546 107.546C137.568 106.533 137.403 105.837 137.08 105.415C136.595 104.783 135.872 104.579 135.126 104.688C134.319 104.806 133.759 105.245 133.606 105.557C133.236 106.317 133.206 106.841 133.292 107.322C133.372 107.773 133.548 108.195 133.797 108.791C133.862 108.947 133.933 109.115 134.007 109.298C134.719 111.047 135.43 113.374 134.538 117.556C134.44 118.015 134.035 118.344 133.565 118.347C133.096 118.349 132.687 118.025 132.584 117.566C132.54 117.366 132.318 116.899 131.883 116.322C131.467 115.77 130.936 115.226 130.389 114.848C129.823 114.457 129.366 114.329 129.051 114.367C128.812 114.395 128.434 114.547 128.044 115.323C127.912 115.585 127.895 115.741 127.898 115.82C127.9 115.891 127.92 115.96 127.983 116.054C128.152 116.304 128.491 116.548 129.083 116.938C129.106 116.953 129.129 116.968 129.152 116.983C129.648 117.309 130.329 117.757 130.779 118.371C131.033 118.716 131.23 119.132 131.297 119.625C131.363 120.117 131.291 120.624 131.099 121.14C130.656 122.329 130.918 123.175 131.538 123.84C132.222 124.573 133.417 125.15 134.902 125.461C136.367 125.768 137.994 125.789 139.418 125.523C140.87 125.252 141.96 124.712 142.526 124.038C143.56 122.807 143.789 121.862 143.74 121.104C143.688 120.291 143.311 119.522 142.791 118.633C142.609 118.321 142.565 117.971 142.558 117.704C142.55 117.413 142.584 117.093 142.649 116.759C142.779 116.09 143.049 115.281 143.473 114.387C144.322 112.601 145.82 110.41 148.196 108.234C148.915 107.494 149.062 106.909 149.037 106.534C149.013 106.151 148.798 105.779 148.392 105.488ZM151.033 106.405C151.104 107.507 150.614 108.626 149.606 109.653C149.593 109.666 149.58 109.679 149.566 109.691C147.361 111.707 146.015 113.698 145.279 115.246C144.91 116.022 144.703 116.67 144.612 117.139C144.567 117.375 144.555 117.545 144.557 117.651C144.558 117.669 144.559 117.683 144.56 117.695C145.078 118.586 145.653 119.687 145.736 120.976C145.824 122.355 145.347 123.79 144.057 125.325C143.065 126.506 141.447 127.179 139.786 127.489C138.097 127.804 136.206 127.777 134.492 127.418C132.797 127.063 131.151 126.357 130.075 125.204C128.935 123.981 128.52 122.336 129.224 120.443C129.324 120.176 129.33 120.002 129.315 119.893C129.3 119.785 129.258 119.678 129.167 119.554C128.95 119.259 128.568 118.994 127.983 118.608C127.962 118.594 127.941 118.58 127.919 118.566C127.429 118.244 126.745 117.794 126.326 117.173C126.085 116.817 125.916 116.389 125.899 115.889C125.882 115.397 126.014 114.908 126.256 114.426C126.853 113.238 127.722 112.512 128.813 112.381C129.828 112.259 130.782 112.689 131.526 113.203C132.046 113.562 132.528 114.006 132.943 114.468C133.034 112.41 132.585 111.11 132.155 110.052C132.102 109.923 132.047 109.791 131.99 109.656C131.731 109.04 131.446 108.364 131.323 107.674C131.157 106.745 131.266 105.792 131.809 104.68C132.341 103.59 133.609 102.889 134.837 102.709C136.126 102.521 137.644 102.863 138.667 104.198C139.409 105.167 139.571 106.43 139.546 107.589C139.52 108.77 139.292 110.04 139.077 111.16C139.05 111.304 139.022 111.444 138.996 111.582C138.806 112.562 138.647 113.38 138.613 114.012C138.609 114.088 138.607 114.157 138.607 114.219C138.909 113.755 139.219 113.01 139.655 111.95L139.661 111.935C140.499 109.895 141.674 107.035 143.903 104.463C145.496 102.626 148.027 102.767 149.556 103.862C150.347 104.429 150.963 105.308 151.033 106.405ZM144.564 117.731C144.564 117.731 144.564 117.729 144.563 117.727C144.564 117.729 144.564 117.731 144.564 117.731Z" fill="#3F2200"/>
<path d="M137.213 118.049C138.875 116.387 140.589 115.052 142.692 114.77C143.983 114.597 145.114 115.228 145.441 116.287C145.943 117.914 148.085 120.831 145.637 121.38C144.419 121.654 143.146 122.471 141.131 121.968C140.327 121.767 140.347 121.38 138.584 120.597C137.017 120.401 136.429 118.833 137.213 118.049Z" fill="white"/>
<path fill-rule="evenodd" clip-rule="evenodd" d="M142.56 113.776C144.22 113.554 145.894 114.361 146.397 115.989C146.492 116.299 146.668 116.684 146.894 117.179C146.909 117.211 146.923 117.242 146.938 117.274C147.167 117.777 147.436 118.374 147.605 118.955C147.767 119.51 147.897 120.234 147.651 120.918C147.368 121.701 146.703 122.163 145.856 122.353C145.674 122.394 145.45 122.47 145.19 122.558C144.216 122.887 142.72 123.392 140.889 122.936C140.326 122.795 139.999 122.566 139.706 122.361C139.686 122.347 139.666 122.333 139.646 122.319C139.383 122.136 139.027 121.894 138.299 121.562C137.269 121.384 136.491 120.764 136.114 119.97C135.726 119.155 135.755 118.09 136.506 117.339C138.195 115.651 140.11 114.105 142.559 113.776L142.56 113.776ZM140.515 120.493C140.617 120.559 140.706 120.62 140.788 120.678L140.8 120.686C141.113 120.903 141.173 120.945 141.373 120.995C142.582 121.297 143.317 121.052 144.201 120.758C144.566 120.636 144.957 120.505 145.418 120.402C145.62 120.357 145.708 120.301 145.739 120.278C145.761 120.261 145.764 120.253 145.769 120.24C145.794 120.171 145.816 119.961 145.685 119.515C145.563 119.094 145.355 118.623 145.118 118.104C145.099 118.061 145.079 118.018 145.058 117.974C144.853 117.524 144.622 117.02 144.486 116.579C144.335 116.089 143.747 115.635 142.825 115.758M140.515 120.493C141.195 120.134 142.031 119.831 142.894 119.831C143.447 119.831 143.894 119.383 143.894 118.831C143.894 118.279 143.447 117.831 142.894 117.831C141.479 117.831 140.228 118.357 139.367 118.841C138.941 119.081 138.593 119.32 138.346 119.504C138.118 119.402 137.984 119.246 137.92 119.111C137.818 118.897 137.887 118.787 137.92 118.754C139.556 117.118 141.069 115.994 142.825 115.758M139.251 121.339C139.251 121.339 139.251 121.339 139.252 121.339L139.251 121.339Z" fill="#3F2200"/>
<path fill-rule="evenodd" clip-rule="evenodd" d="M90.1871 63.8221C88.2886 60.2928 83.7617 59.0052 79.9842 59.7084C77.6686 60.1394 75.3851 61.316 73.7226 63.3555C72.047 65.4113 71.1047 68.2181 71.2683 71.7133C71.3135 72.6787 72.1328 73.4247 73.0982 73.3795C74.0637 73.3343 74.8097 72.515 74.7645 71.5496C74.6356 68.7971 75.3751 66.8679 76.4356 65.5668C77.5093 64.2496 79.016 63.4487 80.6247 63.1492C84.0495 62.5117 86.9826 64.132 87.4881 66.5486C87.6014 67.0906 87.9646 67.547 88.4673 67.7791C88.97 68.0113 89.553 67.9918 90.0391 67.7266C93.0359 66.0919 94.9762 66.6607 96.0872 67.5706C97.1479 68.4395 97.6796 69.7727 97.6891 70.8542C95.7902 72.2779 94.6625 74.2247 94.1692 75.7176C93.866 76.6353 94.3642 77.6251 95.2819 77.9283C96.1996 78.2315 97.1893 77.7333 97.4925 76.8156C97.8438 75.7524 98.7522 74.2576 100.254 73.3384C101.679 72.4667 103.85 71.9794 107.082 73.2586C107.939 73.5978 108.912 73.2141 109.307 72.3814C110.42 70.0345 111.704 68.6104 112.96 67.7841C114.204 66.9645 115.515 66.6693 116.809 66.7292C119.482 66.8529 122.108 68.5057 123.508 70.2922C124.016 70.9409 124.908 71.1473 125.649 70.7876C127.05 70.1078 129.1 69.5905 130.796 69.9606C131.599 70.1359 132.305 70.5036 132.878 71.1464C133.459 71.7982 134 72.8435 134.272 74.5301C134.426 75.4843 135.324 76.1331 136.279 75.9792C137.233 75.8253 137.882 74.9271 137.728 73.9729C137.376 71.7901 136.614 70.0778 135.491 68.818C134.361 67.5492 132.963 66.8512 131.542 66.5411C129.36 66.065 127.096 66.4895 125.362 67.1168C123.351 65.0891 120.288 63.3864 116.971 63.2329C115 63.1417 112.947 63.6022 111.035 64.8608C109.466 65.8938 108.058 67.4203 106.87 69.4912C104.656 68.8558 102.697 68.8463 101.006 69.2702C100.633 67.6145 99.7 66.0056 98.305 64.863C96.2762 63.2012 93.4458 62.6311 90.1871 63.8221Z" fill="#3F2200"/>
</g>
<defs>
<filter id="filter0_d_3737_3682" x="0" y="0.265625" width="200" height="200" filterUnits="userSpaceOnUse" color-interpolation-filters="sRGB">
<feFlood flood-opacity="0" result="BackgroundImageFix"/>
<feColorMatrix in="SourceAlpha" type="matrix" values="0 0 0 0 0 0 0 0 0 0 0 0 0 0 0 0 0 0 127 0" result="hardAlpha"/>
<feOffset dy="16"/>
<feGaussianBlur stdDeviation="10"/>
<feComposite in2="hardAlpha" operator="out"/>
<feColorMatrix type="matrix" values="0 0 0 0 0.633333 0 0 0 0 0.342 0 0 0 0 0 0 0 0 0.25 0"/>
<feBlend mode="normal" in2="BackgroundImageFix" result="effect1_dropShadow_3737_3682"/>
<feBlend mode="normal" in="SourceGraphic" in2="effect1_dropShadow_3737_3682" result="shape"/>
</filter>
<radialGradient id="paint0_radial_3737_3682" cx="0" cy="0" r="1" gradientUnits="userSpaceOnUse" gradientTransform="translate(129.5 47.5) rotate(104.179) scale(120.434)">
<stop offset="0.18" stop-color="#EEEEEE"/>
<stop offset="1" stop-color="#FFB800"/>
</radialGradient>
</defs>
</svg>
