<svg width="224" height="32" viewBox="0 0 224 32" fill="none" xmlns="http://www.w3.org/2000/svg">
<path fill-rule="evenodd" clip-rule="evenodd" d="M19.2383 8.98055H22.9042C23.7995 8.98055 24.6582 9.33623 25.2913 9.96934C25.9244 10.6024 26.2801 11.4611 26.2801 12.3565V21.6896C26.2799 22.5847 25.9242 23.4431 25.2913 24.076C24.6584 24.709 23.8001 25.0647 22.905 25.065H22.2931C22.293 25.3895 22.1641 25.7008 21.9345 25.9303C21.705 26.1598 21.3938 26.2887 21.0692 26.2887C20.7446 26.2887 20.4334 26.1598 20.2039 25.9303C19.9744 25.7008 19.8454 25.3895 19.8453 25.065H11.7394C11.7261 25.3804 11.5914 25.6784 11.3635 25.8968C11.1357 26.1153 10.8322 26.2372 10.5166 26.2372C10.2009 26.2372 9.89749 26.1153 9.66963 25.8968C9.44177 25.6784 9.30713 25.3804 9.29382 25.065H8.40313C7.50789 25.0649 6.64934 24.7093 6.01626 24.0763C5.38318 23.4433 5.02741 22.5848 5.0272 21.6896L5 12.3565C4.99993 11.9131 5.0872 11.4741 5.25683 11.0644C5.42645 10.6548 5.67512 10.2826 5.98861 9.96908C6.30211 9.65556 6.67429 9.40687 7.08391 9.23721C7.49354 9.06755 7.93257 8.98024 8.37593 8.98028H12.2871L10.6363 7.32943L10.6297 7.32318C10.4844 7.17769 10.4029 6.98044 10.403 6.77482C10.4031 6.5692 10.4849 6.37205 10.6304 6.22674C10.7759 6.08143 10.9731 5.99987 11.1788 6C11.3844 6.00013 11.5815 6.08193 11.7268 6.22742L11.7331 6.23395L14.48 8.98082H17.0465L19.7934 6.23395L19.7997 6.22742C19.9458 6.08587 20.1417 6.00744 20.3451 6.00906C20.5486 6.01067 20.7432 6.09221 20.8871 6.23606C21.0309 6.37991 21.1124 6.57455 21.114 6.77798C21.1157 6.98142 21.0372 7.17733 20.8957 7.32345C20.8946 7.32475 20.8932 7.32595 20.8919 7.32716C20.891 7.32799 20.89 7.32883 20.8892 7.3297L19.2383 8.98055ZM22.3088 16.4432L17.8213 15.6817L18.1066 13.7339L22.6419 14.6349L22.3088 16.4432ZM8.72426 14.6439L13.2599 13.7428L13.5452 15.6907L9.05769 16.4522L8.72426 14.6439ZM15.7119 18.304C15.9067 18.7125 16.6589 19.3617 16.9915 19.3089C17.3633 19.2513 17.6766 18.5985 17.6766 18.5985L18.5374 19.1558C18.5374 19.1558 18.319 19.5548 18.1425 19.7996C17.8868 20.1553 17.3731 20.4093 16.768 20.3957C16.3304 20.3859 15.9031 20.047 15.7399 19.9032C15.726 19.8908 15.708 19.8839 15.6893 19.8839H15.6622C15.643 19.8838 15.6245 19.8907 15.6102 19.9034C15.4522 20.0451 15.023 20.3859 14.5819 20.3957C13.9768 20.4093 13.4627 20.1556 13.2074 19.7998C13.03 19.554 12.8125 19.1561 12.8125 19.1561L13.6735 18.5985C13.6735 18.5985 13.9863 19.2513 14.3586 19.3089C14.6915 19.3614 15.4435 18.712 15.6382 18.304C15.6413 18.2974 15.6462 18.2918 15.6524 18.2878C15.6586 18.2839 15.6657 18.2817 15.673 18.2817H15.6774C15.6847 18.2817 15.6918 18.2838 15.6979 18.2877C15.7041 18.2917 15.7089 18.2973 15.7119 18.304Z" fill="black"/>
<path d="M51.043 16.299C53.2876 16.9973 55.0832 18.2443 56.43 20.04C57.7767 21.8356 58.4667 23.9056 58.5 26.25H37.75C37.7833 23.9056 38.4733 21.8356 39.82 20.04C41.1668 18.2443 42.9624 16.9973 45.207 16.299L48.125 20.6635L51.043 16.299ZM53.3125 10.6875C53.2792 12.1506 52.7721 13.3727 51.7912 14.3537C50.8102 15.3346 49.5881 15.8417 48.125 15.875C46.6619 15.8417 45.4398 15.3346 44.4588 14.3537C43.4779 13.3727 42.9708 12.1506 42.9375 10.6875C42.9708 9.22436 43.4779 8.0023 44.4588 7.02133C45.4398 6.04036 46.6619 5.53325 48.125 5.5C49.5881 5.53325 50.8102 6.04036 51.7912 7.02133C52.7721 8.0023 53.2792 9.22436 53.3125 10.6875Z" fill="black"/>
<path fill-rule="evenodd" clip-rule="evenodd" d="M84.4623 12.1849C81.9606 12.0487 79.8342 12.665 78.1565 14.4263C76.4601 16.2075 75.946 18.3335 76.5757 20.8831C76.2992 20.8649 76.029 20.8611 75.7662 20.8574C75.2035 20.8495 74.6744 20.8421 74.1882 20.6941C73.0068 20.3341 72.0334 20.6511 71.0528 21.2338C70.6346 21.4823 70.1805 21.6702 69.6186 21.794C69.679 21.6117 69.7372 21.4286 69.7954 21.2455C69.9303 20.8209 70.0653 20.3962 70.2282 19.9827C70.4162 19.5055 70.3453 19.209 69.9079 18.8775C68.566 17.8609 67.5349 16.579 67.1741 14.9001C66.6106 12.2777 67.4311 10.0658 69.4011 8.29593C73.2142 4.87034 79.7866 5.33966 83.0516 9.29192C83.4436 9.76642 83.7185 10.3387 83.9928 10.9095C84.1004 11.1334 84.2078 11.357 84.3221 11.5744C84.3765 11.6777 84.3959 11.7994 84.4188 11.9438C84.4306 12.018 84.4434 12.0981 84.4623 12.1849ZM79.9278 10.7944C79.9141 10.1795 79.5321 9.82157 78.8987 9.83065C78.2423 9.83993 77.7334 10.2838 77.7383 10.8428C77.7433 11.4236 78.2733 11.847 78.9749 11.8305C79.5853 11.8162 79.9419 11.4284 79.9278 10.7944ZM71.6853 10.8138C71.6774 11.3968 72.1914 11.8326 72.8842 11.8302C73.495 11.8284 73.9042 11.4392 73.9132 10.8518C73.9224 10.2476 73.4888 9.82568 72.8636 9.83049C72.2009 9.83575 71.6928 10.2597 71.6853 10.8138ZM79.7031 13.7458C82.8043 11.7731 87.0611 12.1777 89.6732 14.6933C92.0229 16.9563 92.1743 19.9659 90.0436 22.4299C89.8623 22.6396 89.6569 22.8283 89.4516 23.0171C89.2482 23.204 89.0448 23.3909 88.8648 23.5981C88.7243 23.7601 88.6355 24.0599 88.6754 24.2677C88.7512 24.6634 88.8695 25.051 88.9878 25.4386C89.0348 25.5928 89.0818 25.7469 89.1262 25.9016L89.0042 25.9927C88.8335 25.9005 88.6615 25.8106 88.4894 25.7206C88.0881 25.5108 87.6867 25.3009 87.3028 25.0629C86.8995 24.813 86.5283 24.7772 86.0692 24.9011C83.8518 25.4992 81.7421 25.1687 79.7916 23.9881C75.7308 21.5302 75.6962 16.2945 79.7031 13.7458ZM80.9839 16.8721C80.969 17.3187 81.353 17.6857 81.8277 17.6784C82.3112 17.671 82.7372 17.3217 82.7515 16.921C82.7668 16.4909 82.3398 16.1265 81.8189 16.1252C81.3455 16.1239 80.9985 16.4344 80.9839 16.8721ZM85.709 16.9143C85.7191 17.3042 86.1289 17.6729 86.5596 17.6794C87.045 17.6868 87.4663 17.3496 87.4851 16.9387C87.506 16.4784 87.1186 16.1285 86.5832 16.1244C86.1143 16.1208 85.6982 16.4969 85.709 16.9143Z" fill="black"/>
<path d="M119.282 10.3824C119.282 10.3824 116.052 4.44912 109.715 6.3901C109.715 6.3901 104.923 7.9946 104.743 12.9376C104.743 12.9376 104.812 15.5712 106.336 17.2048C106.336 17.2048 107.115 12.9407 110.864 10.9865C114.613 9.03222 118.115 9.74275 119.282 10.3824Z" fill="black"/>
<path d="M102.966 13.3514C100.673 16.8969 98.5861 24.9454 107.757 26.7309C116.928 28.5166 117.469 20.8306 117.469 20.8306C114.533 23.2891 111.57 22.5126 111.106 22.4349C110.643 22.3574 110.282 22.6161 110.282 22.6161L108.53 23.7807C108.195 24.0136 108.05 24.0136 108.05 24.0136C107.596 23.9361 107.834 23.2114 107.834 23.2114L108.015 22.1504C108.195 21.3223 107.628 21.0636 107.628 21.0636C102.862 18.3202 102.966 13.3514 102.966 13.3514Z" fill="black"/>
<path d="M119.066 17.6991C120.432 22.3314 117.547 25.7478 116.954 26.0323C116.954 26.0323 123.755 24.2724 122.931 17.0523C122.931 17.0523 122.441 13.0149 118.216 11.7727C118.216 11.7727 115.434 11.0224 113.064 12.0316C113.064 12.0316 117.701 13.0669 119.066 17.6991Z" fill="black"/>
<path d="M154.953 15.273C155.294 15.0706 155.553 14.9905 155.732 15.0326C155.911 15.0748 156 15.2139 156 15.4501V23.3182C156 23.9254 155.928 24.4103 155.783 24.773C155.638 25.1356 155.443 25.4055 155.196 25.5826C154.949 25.7597 154.66 25.8735 154.328 25.9241C153.996 25.9747 153.634 26 153.243 26H152.119C151.557 26 150.881 25.9958 150.089 25.9873C149.298 25.9789 148.417 25.9747 147.447 25.9747H144.46H141.447H138.689H136.443H135.013C134.4 25.9747 133.898 25.8946 133.506 25.7344C133.115 25.5741 132.809 25.3675 132.587 25.1145C132.366 24.8615 132.213 24.5706 132.128 24.2417C132.043 23.9128 132 23.5712 132 23.217V15.7031C132 15.3657 132.085 15.1507 132.255 15.0579C132.426 14.9652 132.638 15.0031 132.894 15.1718C132.962 15.2224 133.115 15.3236 133.353 15.4754C133.591 15.6272 133.868 15.8 134.183 15.994C134.498 16.188 134.834 16.3946 135.191 16.6138C135.549 16.8331 135.881 17.0355 136.187 17.221C136.494 17.4066 136.757 17.571 136.979 17.7144C137.2 17.8577 137.345 17.9463 137.413 17.98C137.634 18.115 137.736 18.2625 137.719 18.4228C137.702 18.583 137.651 18.7306 137.566 18.8655C137.498 19.0004 137.396 19.2113 137.26 19.498C137.123 19.7847 136.979 20.0841 136.826 20.3961C136.672 20.7082 136.528 21.0033 136.391 21.2816C136.255 21.5599 136.153 21.7581 136.085 21.8762C136 22.0111 135.97 22.1249 135.996 22.2177C136.021 22.3105 136.068 22.3822 136.136 22.4328C136.204 22.4834 136.289 22.496 136.391 22.4707C136.494 22.4454 136.587 22.3822 136.672 22.281C136.723 22.2304 136.855 22.0828 137.068 21.8382C137.281 21.5937 137.515 21.328 137.77 21.0413C138.026 20.7545 138.268 20.4889 138.498 20.2443C138.728 19.9998 138.877 19.8438 138.945 19.7763C139.03 19.692 139.162 19.595 139.34 19.4854C139.519 19.3757 139.702 19.3631 139.889 19.4474C139.991 19.5149 140.166 19.6287 140.413 19.7889C140.66 19.9492 140.932 20.1221 141.23 20.3076C141.528 20.4931 141.826 20.6829 142.123 20.8768C142.421 21.0708 142.672 21.2268 142.877 21.3449C143.081 21.4798 143.298 21.5641 143.528 21.5979C143.757 21.6316 143.974 21.64 144.179 21.6232C144.383 21.6063 144.57 21.5684 144.74 21.5093C144.911 21.4503 145.038 21.3955 145.123 21.3449C145.226 21.2943 145.421 21.1846 145.711 21.016C146 20.8473 146.315 20.6576 146.655 20.4467C146.996 20.2359 147.315 20.0377 147.613 19.8522C147.911 19.6667 148.119 19.5402 148.238 19.4727C148.426 19.3715 148.587 19.342 148.723 19.3842C148.86 19.4263 149.004 19.5149 149.157 19.6498C149.226 19.7004 149.362 19.8522 149.566 20.1052C149.77 20.3582 149.996 20.6323 150.243 20.9274C150.489 21.2226 150.719 21.5051 150.932 21.775C151.145 22.0448 151.294 22.2304 151.379 22.3316C151.481 22.4496 151.587 22.5129 151.698 22.5213C151.809 22.5297 151.902 22.5044 151.979 22.4454C152.055 22.3864 152.106 22.302 152.132 22.1924C152.157 22.0828 152.128 21.9605 152.043 21.8256C152.009 21.7581 151.94 21.5937 151.838 21.3322C151.736 21.0708 151.621 20.7798 151.494 20.4594C151.366 20.1389 151.234 19.8269 151.098 19.5233C150.962 19.2197 150.86 19.0004 150.791 18.8655C150.655 18.6125 150.583 18.4101 150.574 18.2583C150.566 18.1065 150.655 17.9716 150.843 17.8535C150.894 17.8198 151.106 17.6849 151.481 17.4487C151.855 17.2126 152.272 16.947 152.732 16.6518C153.191 16.3566 153.638 16.0783 154.072 15.8169C154.506 15.5555 154.8 15.3742 154.953 15.273ZM144 19.6245C143.915 19.6414 143.77 19.5992 143.566 19.498C143.362 19.3968 143.132 19.2703 142.877 19.1185C141.974 18.6294 141.072 18.1234 140.17 17.6005C139.387 17.162 138.549 16.6855 137.655 16.1711C136.762 15.6567 135.932 15.1802 135.166 14.7417V10.1877H135.217V10.1625C135.217 9.72392 135.302 9.31491 135.472 8.93542C135.643 8.55593 135.872 8.22281 136.162 7.93609C136.451 7.64936 136.787 7.42166 137.17 7.253C137.553 7.08433 137.966 7 138.409 7H149.591C150.034 7 150.451 7.08433 150.843 7.253C151.234 7.42166 151.574 7.64936 151.864 7.93609C152.153 8.22281 152.383 8.55593 152.553 8.93542C152.723 9.31491 152.809 9.72392 152.809 10.1625V10.1877H152.86V14.7417C152.077 15.1802 151.238 15.6567 150.345 16.1711C149.451 16.6855 148.613 17.162 147.83 17.6005C146.911 18.1234 146.009 18.6378 145.123 19.1438C144.97 19.2281 144.77 19.3293 144.523 19.4474C144.277 19.5655 144.102 19.6245 144 19.6245ZM140.017 11.7563H148.009V10.1625H140.017V11.7563ZM140.017 14.9188H148.009V13.3249H140.017V14.9188Z" fill="black"/>
<path d="M186 11.3797V10.5032C185.616 10.4985 185.233 10.4572 184.857 10.3796C184.218 10.2417 183.609 9.99217 183.056 9.64251C183.023 9.60039 182.983 9.56316 182.939 9.53187C182.193 9.06055 181.589 8.39268 181.193 7.60072C180.929 7.09878 180.736 6.56184 180.622 6.0058H180.6C180.539 5.67409 180.51 5.33729 180.513 5H176.565C176.565 6.91247 176.572 8.82493 176.556 10.7374V20.7509C176.549 21.3061 176.402 21.8505 176.131 22.3342C175.86 22.818 175.473 23.2256 175.004 23.5197C174.516 23.8295 173.954 24.0035 173.377 24.0239C172.799 24.0444 172.227 23.9106 171.718 23.6361C171.343 23.4175 171.005 23.1395 170.718 22.8128C170.301 22.3339 170.038 21.7393 169.965 21.1072C169.893 20.4568 170.01 19.7993 170.303 19.2149C170.479 18.8723 170.722 18.5688 171.018 18.3226C171.505 17.9256 172.079 17.6495 172.692 17.5165C173.205 17.383 173.745 17.3995 174.249 17.5639V15.5911C174.249 15.206 174.26 14.8195 174.24 14.4416C174.227 14.1327 174.24 13.8238 174.24 13.5149C172.579 13.2818 170.89 13.6375 169.462 14.5207C168.483 15.1243 167.66 15.9519 167.06 16.936C166.104 18.507 165.778 20.385 166.15 22.1884C166.521 23.9918 167.562 25.5853 169.06 26.6449L169.113 26.6909C169.899 27.2437 170.789 27.6308 171.728 27.8289C172.394 27.9662 173.074 28.0212 173.753 27.9927C175.1 27.9589 176.405 27.5139 177.495 26.7168C178.324 26.0987 179.017 25.3144 179.53 24.4135C180.134 23.381 180.496 22.2229 180.586 21.0282C180.61 20.7035 180.596 20.3788 180.594 20.054C180.576 17.6152 180.568 15.1764 180.57 12.7375C182.158 13.8631 184.057 14.4619 186 14.4503V11.3797Z" fill="black"/>
<path d="M218.5 16C218.5 10.2011 213.799 5.5 208 5.5C202.201 5.5 197.5 10.2011 197.5 16C197.5 21.7989 202.201 26.5 208 26.5C213.799 26.5 218.5 21.7989 218.5 16ZM208.786 11.0077L210.141 12.3632L206.43 16.0764L210.473 20.1198L209.123 21.4695L203.724 16.0697L208.786 11.0077Z" fill="black"/>
</svg>
