<svg width="128" height="32" viewBox="0 0 128 32" fill="none" xmlns="http://www.w3.org/2000/svg">
<g clip-path="url(#clip0_1964_36445)">
<path d="M22.2238 14.2565C22.2238 14.0645 22.2238 13.8565 22.1758 13.6805C22.0638 13.2965 21.7598 12.9765 21.3918 12.8485C21.1838 12.7685 20.9598 12.7845 20.7358 12.7845H11.3438C11.1518 12.7845 10.9598 12.7845 10.7678 12.8005C10.3198 12.8805 9.93578 13.2325 9.80778 13.6645C9.75978 13.8085 9.75978 13.9685 9.75978 14.1285V19.8405C9.74378 20.3525 10.1118 20.8485 10.5918 21.0085C10.7678 21.0725 10.9598 21.0725 11.1358 21.0725H20.9598C21.4398 21.0885 21.9038 20.8005 22.0958 20.3685C22.2238 20.1285 22.2238 19.8405 22.2078 19.5685C22.2238 17.8085 22.2238 16.0325 22.2238 14.2565ZM14.0638 17.0565C14.0638 17.3285 13.9838 17.6005 13.8238 17.8245C13.5838 18.1445 13.1838 18.3205 12.7838 18.2885C12.3998 18.2565 12.0318 18.0325 11.8398 17.6805C11.6958 17.4245 11.6798 17.1365 11.6798 16.8645C11.6958 16.4645 11.6638 16.0645 11.6958 15.6485C11.7598 15.1205 12.2238 14.6725 12.7518 14.6405C13.0718 14.6085 13.3918 14.7045 13.6318 14.9125C13.9038 15.1365 14.0478 15.4725 14.0478 15.8085C14.0638 16.2245 14.0638 16.6405 14.0638 17.0565ZM20.3038 16.9285C20.3038 17.2005 20.2718 17.4885 20.1278 17.7285C19.9038 18.0965 19.4878 18.3205 19.0558 18.2885C18.6878 18.2725 18.3358 18.0645 18.1278 17.7605C17.9518 17.5045 17.9198 17.2005 17.9358 16.9125C17.9358 16.5125 17.9198 16.1125 17.9518 15.7125C17.9838 15.1685 18.4638 14.7045 19.0078 14.6565C19.3278 14.6245 19.6638 14.7365 19.9038 14.9445C20.1438 15.1525 20.2878 15.4725 20.3038 15.7765C20.3198 16.1605 20.3038 16.5445 20.3038 16.9285Z" fill="#66400E"/>
<path d="M16.0002 0.160156C7.24816 0.160156 0.160156 7.24816 0.160156 16.0002C0.160156 24.7522 7.24816 31.8402 16.0002 31.8402C24.7522 31.8402 31.8402 24.7522 31.8402 16.0002C31.8402 7.24816 24.7522 0.160156 16.0002 0.160156Z" fill="#66400E"/>
<path fill-rule="evenodd" clip-rule="evenodd" d="M23.6018 22.9612C24.2098 22.5772 24.6738 21.9692 24.8178 21.2652C24.8686 21.0516 24.8742 20.8315 24.8798 20.6132C24.883 20.4881 24.8861 20.3636 24.8978 20.2412V13.2972C24.8978 12.6092 24.6258 11.9532 24.1458 11.4732C23.6818 10.9772 23.0418 10.6892 22.3698 10.6732H20.8498C20.9244 10.6199 20.9991 10.5523 21.0738 10.4848C21.1111 10.451 21.1484 10.4172 21.1858 10.3852C21.2444 10.3319 21.3049 10.2803 21.3653 10.2288C21.4862 10.1256 21.6071 10.0225 21.7138 9.9052C21.8898 9.6812 21.9858 9.3932 21.9698 9.1052C21.9538 8.7052 21.7138 8.3212 21.3618 8.1452C21.0578 7.9692 20.6898 7.9532 20.3698 8.0972C20.1866 8.17048 20.0313 8.30903 19.8827 8.44167C19.8366 8.48279 19.7912 8.52334 19.7458 8.5612C18.9458 9.26515 18.1299 9.96909 17.314 10.673L17.3138 10.6732H15.6018C15.0471 10.2039 14.5067 9.73453 13.9662 9.26519C13.696 9.03053 13.4258 8.79587 13.1538 8.5612C13.1341 8.5432 13.1145 8.52502 13.0948 8.50681C12.922 8.34692 12.7452 8.18338 12.5298 8.0972C12.2098 7.9692 11.8098 7.9852 11.5058 8.1612C11.1698 8.3372 10.9298 8.7212 10.9138 9.1052C10.8818 9.4732 11.0578 9.8412 11.3458 10.0812C11.448 10.163 11.5474 10.2506 11.6463 10.3379C11.7796 10.4554 11.912 10.5722 12.0498 10.6732C11.8738 10.6732 11.6978 10.6714 11.5218 10.6696C11.1698 10.6661 10.8178 10.6625 10.4658 10.6732C9.31378 10.7212 8.27378 11.6332 8.04978 12.7692C7.99644 13.0625 7.99867 13.3559 8.00089 13.6492C8.00133 13.7079 8.00178 13.7665 8.00178 13.8252V20.6892C8.00178 21.1852 8.14578 21.6972 8.41778 22.1132C8.80178 22.6892 9.39378 23.1372 10.0818 23.2812C10.3834 23.3498 10.6969 23.3478 11.012 23.3459C11.0645 23.3455 11.1172 23.3452 11.1698 23.3452H22.2258C22.7058 23.3452 23.1858 23.2172 23.6018 22.9612ZM22.6097 13.7452C22.6577 13.9212 22.6577 14.1292 22.6577 14.3212C22.6577 16.0972 22.6577 17.8732 22.6417 19.6332C22.6577 19.9052 22.6577 20.1932 22.5297 20.4332C22.3377 20.8652 21.8737 21.1532 21.3937 21.1372H11.5697C11.3937 21.1372 11.2017 21.1372 11.0257 21.0732C10.5457 20.9132 10.1777 20.4172 10.1937 19.9052V14.1932V14.1932C10.1937 14.0332 10.1937 13.8732 10.2417 13.7292C10.3697 13.2972 10.7537 12.9452 11.2017 12.8652C11.3937 12.8492 11.5857 12.8492 11.7777 12.8492H21.1697C21.2018 12.8492 21.2338 12.8489 21.2658 12.8486C21.4575 12.8466 21.6475 12.8447 21.8257 12.9132C22.1937 13.0412 22.4977 13.3612 22.6097 13.7452ZM14.2577 17.8892C14.4177 17.6652 14.4977 17.3932 14.4977 17.1212C14.4977 16.7052 14.4977 16.2892 14.4817 15.8732C14.4817 15.5372 14.3377 15.2012 14.0657 14.9772C13.8257 14.7692 13.5057 14.6732 13.1857 14.7052C12.6577 14.7372 12.1937 15.1852 12.1297 15.7132C12.1114 15.9512 12.1141 16.184 12.1167 16.4145C12.1186 16.5869 12.1206 16.7581 12.1137 16.9292C12.1137 17.2012 12.1297 17.4892 12.2737 17.7452C12.4657 18.0972 12.8337 18.3212 13.2177 18.3532C13.6177 18.3852 14.0177 18.2092 14.2577 17.8892ZM20.5617 17.7932C20.7057 17.5532 20.7377 17.2652 20.7377 16.9932C20.7377 16.8652 20.7395 16.7372 20.7413 16.6092C20.7449 16.3532 20.7484 16.0972 20.7377 15.8412C20.7217 15.5372 20.5777 15.2172 20.3377 15.0092C20.0977 14.8012 19.7617 14.6892 19.4417 14.7212C18.8977 14.7692 18.4177 15.2332 18.3857 15.7772C18.3617 16.0772 18.3647 16.3772 18.3677 16.6772C18.3687 16.7772 18.3697 16.8772 18.3697 16.9772C18.3537 17.2652 18.3857 17.5692 18.5617 17.8252C18.7697 18.1292 19.1217 18.3372 19.4897 18.3532C19.9217 18.3852 20.3377 18.1612 20.5617 17.7932Z" fill="white"/>
</g>
<g clip-path="url(#clip1_1964_36445)">
<path d="M32 16C32 20.2435 33.6857 24.3131 36.6863 27.3137C39.6869 30.3143 43.7565 32 48 32C52.2435 32 56.3131 30.3143 59.3137 27.3137C62.3143 24.3131 64 20.2435 64 16C64 11.7565 62.3143 7.68687 59.3137 4.68629C56.3131 1.68571 52.2435 0 48 0C43.7565 0 39.6869 1.68571 36.6863 4.68629C33.6857 7.68687 32 11.7565 32 16Z" fill="#66400E"/>
<path d="M56.64 14.2658C54.9792 14.2658 53.32 13.7698 51.9712 12.7794V19.517C51.9712 22.8866 49.2736 25.7602 45.744 25.7602C42.2176 25.7602 39.52 22.9858 39.52 19.517C39.52 16.0498 42.2176 13.2754 45.744 13.2754C46.056 13.2754 46.472 13.2754 46.784 13.3746V16.9426C46.451 16.8183 46.0994 16.7507 45.744 16.7426C44.1888 16.7426 43.048 18.0322 43.048 19.4194C43.048 21.0034 44.2928 22.0946 45.7456 22.0946C47.1984 22.0946 48.4432 20.805 48.4432 19.4194V6.24023H51.8672C51.8672 8.81623 53.9424 10.8962 56.432 10.8962L56.64 14.2674" fill="white"/>
</g>
<rect x="64" width="32" height="32" rx="16" fill="#66400E"/>
<path d="M86.5302 14.5319C86.5166 14.7244 86.4965 14.923 86.4675 15.1332C85.9822 18.5999 83.3167 21.1167 80.1305 21.1167H79.0925L78.9025 21.3211C79.6178 22.6908 80.9484 23.5847 82.4442 23.5847H83.4757L85.5169 25.7828C85.6492 25.9244 85.8277 26 86.0104 26C86.0958 26 86.1821 25.9834 86.2648 25.9491C86.5239 25.8427 86.6929 25.5836 86.6929 25.2962V23.4997C88.5932 23.0928 90 21.2522 90 19.0284C90 16.7542 88.4919 14.8698 86.5302 14.5319ZM85.4952 14.9882C85.5424 14.6475 85.5651 14.3414 85.5651 14.051C85.5651 10.7146 83.1273 8 80.1305 8H75.435C72.4383 8 70 10.7146 70 14.051C70 17.0465 71.9194 19.5175 74.4917 20.0118V22.5624C74.4917 22.8975 74.6893 23.1989 74.9906 23.3238C75.0874 23.3633 75.1874 23.3828 75.2865 23.3828C75.5001 23.3828 75.7082 23.2944 75.8612 23.1299L78.6726 20.1025H80.1305C82.8242 20.1025 85.0797 17.9516 85.4952 14.9882ZM73.9242 12.1809H81.5627C81.7764 12.1809 81.9508 12.37 81.9508 12.6028C81.9508 12.8362 81.7764 13.0253 81.5627 13.0253H73.9242C73.7106 13.0253 73.5361 12.8362 73.5361 12.6028C73.5361 12.37 73.7106 12.1809 73.9242 12.1809ZM78.5104 16.1002H73.9242C73.7106 16.1002 73.5361 15.9111 73.5361 15.6788C73.5361 15.445 73.7106 15.2557 73.9242 15.2557H78.5104C78.7239 15.2557 78.898 15.445 78.898 15.6788C78.8979 15.9111 78.7239 16.1002 78.5104 16.1002Z" fill="white"/>
<path d="M96 16C96 13.8988 96.4139 11.8183 97.2179 9.87707C98.022 7.93586 99.2006 6.17203 100.686 4.68629C102.172 3.20055 103.936 2.022 105.877 1.21793C107.818 0.413852 109.899 0 112 0C114.101 0 116.182 0.413852 118.123 1.21793C120.064 2.022 121.828 3.20055 123.314 4.68629C124.799 6.17203 125.978 7.93586 126.782 9.87707C127.586 11.8183 128 13.8988 128 16C128 20.2435 126.314 24.3131 123.314 27.3137C120.313 30.3143 116.243 32 112 32C107.757 32 103.687 30.3143 100.686 27.3137C97.6857 24.3131 96 20.2435 96 16Z" fill="#66400E"/>
<path fill-rule="evenodd" clip-rule="evenodd" d="M115.672 13.02C115.904 13.02 116.132 13.0394 116.364 13.059L116.376 13.06C115.748 10.154 112.602 8 109.016 8C105 8 101.712 10.698 101.712 14.13C101.712 16.11 102.802 17.738 104.63 19L103.9 21.17L106.454 19.9C106.605 19.9292 106.751 19.9586 106.894 19.9873L106.894 19.9873L106.895 19.9873C107.615 20.132 108.252 20.26 109.008 20.26C109.234 20.26 109.462 20.252 109.688 20.228C109.539 19.7399 109.464 19.2323 109.464 18.722C109.464 15.574 112.2 13.02 115.672 13.02ZM122.332 18.638C122.332 15.758 119.414 13.412 116.132 13.412C112.658 13.412 109.924 15.76 109.924 18.638C109.924 21.528 112.658 23.868 116.132 23.868C116.836 23.868 117.548 23.6957 118.253 23.525L118.324 23.508L120.33 24.594L119.78 22.79C121.24 21.704 122.332 20.26 122.332 18.638ZM107 12C107 12.5523 106.552 13 106 13C105.448 13 105 12.5523 105 12C105 11.4477 105.448 11 106 11C106.552 11 107 11.4477 107 12ZM114 17C114 17.5523 113.552 18 113 18C112.448 18 112 17.5523 112 17C112 16.4477 112.448 16 113 16C113.552 16 114 16.4477 114 17ZM112 13C112.552 13 113 12.5523 113 12C113 11.4477 112.552 11 112 11C111.448 11 111 11.4477 111 12C111 12.5523 111.448 13 112 13ZM120 17C120 17.5523 119.552 18 119 18C118.448 18 118 17.5523 118 17C118 16.4477 118.448 16 119 16C119.552 16 120 16.4477 120 17Z" fill="white"/>
<defs>
<clipPath id="clip0_1964_36445">
<rect width="32" height="32" fill="white"/>
</clipPath>
<clipPath id="clip1_1964_36445">
<rect width="32" height="32" fill="white" transform="translate(32)"/>
</clipPath>
</defs>
</svg>
