<svg width="224" height="32" viewBox="0 0 224 32" fill="none" xmlns="http://www.w3.org/2000/svg">
<path fill-rule="evenodd" clip-rule="evenodd" d="M20.3964 7.14163H24.8753C25.9692 7.14163 27.0184 7.5762 27.7919 8.34973C28.5654 9.12326 29 10.1724 29 11.2663V22.6695C28.9997 23.7631 28.5652 24.8119 27.7919 25.5853C27.0186 26.3586 25.9699 26.7932 24.8763 26.7936H24.1286C24.1286 27.1901 23.971 27.5704 23.6906 27.8508C23.4102 28.1312 23.0299 28.2887 22.6333 28.2887C22.2368 28.2887 21.8565 28.1312 21.5761 27.8508C21.2956 27.5704 21.1381 27.1901 21.138 26.7936H11.2341C11.2179 27.1789 11.0534 27.543 10.775 27.8099C10.4966 28.0768 10.1258 28.2258 9.74016 28.2258C9.3545 28.2258 8.98374 28.0768 8.70535 27.8099C8.42695 27.543 8.26245 27.1789 8.24619 26.7936H7.15794C6.06414 26.7935 5.01516 26.359 4.24166 25.5856C3.46817 24.8122 3.03349 23.7633 3.03323 22.6695L3 11.2663C2.99991 10.7246 3.10654 10.1882 3.31379 9.68773C3.52104 9.18724 3.82486 8.73248 4.20789 8.34942C4.59091 7.96636 5.04565 7.66251 5.54612 7.45521C6.0466 7.24792 6.58301 7.14125 7.12471 7.1413H11.9034L9.88637 5.1243L9.87839 5.11666C9.70086 4.9389 9.60121 4.6979 9.60136 4.44667C9.60152 4.19544 9.70147 3.95457 9.87922 3.77703C10.057 3.5995 10.298 3.49984 10.5492 3.5C10.8004 3.50016 11.0413 3.60011 11.2189 3.77786L11.2265 3.78584L14.5826 7.14196H17.7184L21.0746 3.78584L21.0822 3.77786C21.2607 3.60492 21.5001 3.50909 21.7486 3.51107C21.9972 3.51304 22.235 3.61266 22.4108 3.78842C22.5865 3.96417 22.6861 4.20199 22.6881 4.45054C22.6901 4.69909 22.5943 4.93846 22.4213 5.11699C22.4199 5.11857 22.4183 5.12004 22.4167 5.12153C22.4156 5.12254 22.4144 5.12356 22.4134 5.12463L20.3964 7.14163ZM24.1481 16.2594L18.6653 15.329L19.0139 12.9491L24.5551 14.05L24.1481 16.2594ZM7.55054 14.0609L13.0921 12.9601L13.4407 15.3399L7.95792 16.2703L7.55054 14.0609ZM16.0881 18.5329C16.326 19.032 17.2451 19.8252 17.6515 19.7607C18.1057 19.6903 18.4885 18.8928 18.4885 18.8928L19.5402 19.5736C19.5402 19.5736 19.2734 20.0611 19.0577 20.3602C18.7454 20.7948 18.1177 21.1052 17.3783 21.0885C16.8437 21.0766 16.3217 20.6625 16.1223 20.4868C16.1052 20.4716 16.0833 20.4633 16.0605 20.4632H16.0272C16.0039 20.463 15.9813 20.4716 15.9638 20.4871C15.7707 20.6602 15.2464 21.0766 14.7074 21.0885C13.968 21.1052 13.34 20.7951 13.028 20.3605C12.8113 20.0601 12.5455 19.574 12.5455 19.574L13.5975 18.8928C13.5975 18.8928 13.9797 19.6903 14.4346 19.7607C14.8413 19.8248 15.7601 19.0313 15.998 18.5329C16.0018 18.5248 16.0078 18.5179 16.0153 18.5131C16.0228 18.5083 16.0316 18.5057 16.0405 18.5057H16.0459C16.0548 18.5056 16.0635 18.5082 16.071 18.513C16.0785 18.5179 16.0844 18.5248 16.0881 18.5329Z" fill="black"/>
<path d="M51.043 16.299C53.2876 16.9973 55.0832 18.2443 56.43 20.04C57.7767 21.8356 58.4667 23.9056 58.5 26.25H37.75C37.7833 23.9056 38.4733 21.8356 39.82 20.04C41.1668 18.2443 42.9624 16.9973 45.207 16.299L48.125 20.6635L51.043 16.299ZM53.3125 10.6875C53.2792 12.1506 52.7721 13.3727 51.7912 14.3537C50.8102 15.3346 49.5881 15.8417 48.125 15.875C46.6619 15.8417 45.4398 15.3346 44.4588 14.3537C43.4779 13.3727 42.9708 12.1506 42.9375 10.6875C42.9708 9.22436 43.4779 8.0023 44.4588 7.02133C45.4398 6.04036 46.6619 5.53325 48.125 5.5C49.5881 5.53325 50.8102 6.04036 51.7912 7.02133C52.7721 8.0023 53.2792 9.22436 53.3125 10.6875Z" fill="black"/>
<path fill-rule="evenodd" clip-rule="evenodd" d="M86.2092 9.80361C83.4572 9.65382 81.1181 10.3317 79.2726 12.2692C77.4064 14.2286 76.841 16.5673 77.5336 19.372C77.2294 19.3519 76.9322 19.3477 76.6431 19.3437C76.0242 19.335 75.4422 19.3268 74.9073 19.164C73.6077 18.7681 72.5369 19.1168 71.4582 19.7577C70.9982 20.031 70.4987 20.2378 69.8805 20.3739C69.947 20.1735 70.011 19.972 70.075 19.7706C70.2235 19.3035 70.3719 18.8364 70.5512 18.3814C70.7579 17.8565 70.68 17.5304 70.1988 17.1657C68.7227 16.0474 67.5884 14.6373 67.1915 12.7904C66.5717 9.90573 67.4742 7.47253 69.6413 5.52561C73.8358 1.75734 81.0657 2.2736 84.6573 6.62123C85.0885 7.14319 85.391 7.77272 85.6927 8.40065C85.811 8.64688 85.9292 8.89286 86.055 9.13201C86.1148 9.24568 86.1361 9.37953 86.1613 9.53844C86.1743 9.62001 86.1884 9.70818 86.2092 9.80361ZM81.2211 8.27396C81.206 7.59755 80.7857 7.20386 80.089 7.21385C79.3669 7.22406 78.8072 7.71233 78.8125 8.3272C78.818 8.96615 79.401 9.43188 80.1728 9.41373C80.8443 9.39798 81.2366 8.97144 81.2211 8.27396ZM72.154 8.29538C72.1453 8.93668 72.7107 9.41606 73.4728 9.41348C74.1447 9.41139 74.5949 8.9833 74.6048 8.33719C74.6149 7.6725 74.1379 7.20839 73.4502 7.21367C72.7211 7.21946 72.1622 7.6858 72.154 8.29538ZM80.9741 11.5209C84.3855 9.35088 89.0682 9.79601 91.9415 12.5632C94.5263 15.0526 94.6928 18.3633 92.349 21.0738C92.1496 21.3044 91.9237 21.512 91.6977 21.7197C91.474 21.9253 91.2503 22.1309 91.0523 22.3588C90.8977 22.537 90.8 22.8668 90.8439 23.0954C90.9274 23.5307 91.0574 23.9571 91.1875 24.3834C91.2393 24.553 91.291 24.7226 91.3398 24.8927L91.2056 24.9929C91.0178 24.8916 90.8286 24.7926 90.6394 24.6937C90.1978 24.4628 89.7563 24.2319 89.334 23.9702C88.8904 23.6953 88.482 23.6559 87.977 23.7922C85.5378 24.4501 83.2171 24.0865 81.0714 22.7878C76.6044 20.0841 76.5664 14.3246 80.9741 11.5209ZM82.383 14.96C82.3666 15.4512 82.7891 15.8549 83.3112 15.8469C83.8431 15.8387 84.3117 15.4545 84.3274 15.0138C84.3442 14.5407 83.8745 14.1398 83.3015 14.1383C82.7807 14.1369 82.399 14.4785 82.383 14.96ZM87.5808 15.0064C87.5919 15.4353 88.0427 15.8408 88.5164 15.848C89.0504 15.8561 89.5139 15.4852 89.5345 15.0332C89.5575 14.5268 89.1314 14.142 88.5424 14.1375C88.0267 14.1335 87.5689 14.5472 87.5808 15.0064Z" fill="black"/>
<path d="M120.44 8.81061C120.44 8.81061 116.697 1.9591 109.351 4.20047C109.351 4.20047 103.798 6.05329 103.589 11.7612C103.589 11.7612 103.669 14.8025 105.435 16.6889C105.435 16.6889 106.337 11.7649 110.683 9.50818C115.029 7.25149 119.088 8.07199 120.44 8.81061Z" fill="black"/>
<path d="M101.528 12.2391C98.8705 16.3333 96.452 25.6274 107.082 27.6892C117.712 29.7513 118.34 20.8758 118.34 20.8758C114.935 23.7148 111.501 22.8182 110.964 22.7284C110.427 22.6389 110.009 22.9377 110.009 22.9377L107.978 24.2824C107.59 24.5515 107.422 24.5515 107.422 24.5515C106.896 24.4619 107.172 23.625 107.172 23.625L107.381 22.3998C107.59 21.4436 106.933 21.1448 106.933 21.1448C101.409 17.9769 101.528 12.2391 101.528 12.2391Z" fill="black"/>
<path d="M120.19 17.2597C121.773 22.6089 118.429 26.554 117.742 26.8826C117.742 26.8826 125.625 24.8503 124.67 16.5128C124.67 16.5128 124.102 11.8506 119.205 10.4161C119.205 10.4161 115.98 9.54965 113.233 10.7151C113.233 10.7151 118.607 11.9105 120.19 17.2597Z" fill="black"/>
<path d="M155.254 14.6402C155.606 14.4288 155.875 14.3451 156.06 14.3892C156.245 14.4332 156.337 14.5785 156.337 14.8251V23.0426C156.337 23.6767 156.262 24.1831 156.113 24.5619C155.963 24.9406 155.76 25.2224 155.505 25.4074C155.25 25.5924 154.95 25.7113 154.607 25.7641C154.263 25.8169 153.889 25.8434 153.484 25.8434H152.321C151.74 25.8434 151.04 25.839 150.22 25.8302C149.401 25.8213 148.49 25.8169 147.486 25.8169H144.394H141.276H138.423H136.098H134.618C133.984 25.8169 133.464 25.7333 133.059 25.5659C132.654 25.3986 132.337 25.1828 132.108 24.9186C131.879 24.6543 131.72 24.3505 131.632 24.007C131.544 23.6635 131.5 23.3068 131.5 22.9369V15.0894C131.5 14.7371 131.588 14.5125 131.764 14.4156C131.94 14.3187 132.161 14.3583 132.425 14.5345C132.495 14.5873 132.654 14.693 132.9 14.8516C133.147 15.0101 133.433 15.1907 133.759 15.3932C134.085 15.5958 134.433 15.8116 134.803 16.0406C135.173 16.2696 135.516 16.481 135.833 16.6747C136.15 16.8685 136.423 17.0402 136.652 17.19C136.881 17.3397 137.031 17.4322 137.102 17.4674C137.331 17.6083 137.436 17.7625 137.419 17.9298C137.401 18.0971 137.348 18.2513 137.26 18.3922C137.19 18.5331 137.084 18.7533 136.943 19.0528C136.802 19.3522 136.652 19.6649 136.494 19.9908C136.335 20.3166 136.186 20.6249 136.045 20.9156C135.904 21.2062 135.798 21.4132 135.728 21.5365C135.64 21.6774 135.609 21.7963 135.635 21.8932C135.662 21.9901 135.71 22.0649 135.78 22.1178C135.851 22.1706 135.939 22.1838 136.045 22.1574C136.15 22.131 136.247 22.0649 136.335 21.9592C136.388 21.9064 136.525 21.7523 136.745 21.4968C136.965 21.2414 137.207 20.964 137.472 20.6645C137.736 20.3651 137.987 20.0876 138.225 19.8322C138.462 19.5768 138.616 19.4139 138.687 19.3434C138.775 19.2553 138.912 19.154 139.096 19.0395C139.281 18.9251 139.471 18.9118 139.665 18.9999C139.77 19.0704 139.951 19.1893 140.206 19.3566C140.462 19.524 140.744 19.7045 141.052 19.8983C141.36 20.092 141.668 20.2902 141.977 20.4928C142.285 20.6954 142.545 20.8583 142.756 20.9816C142.967 21.1225 143.192 21.2106 143.43 21.2458C143.668 21.2811 143.892 21.2899 144.104 21.2723C144.315 21.2546 144.509 21.215 144.685 21.1534C144.861 21.0917 144.993 21.0345 145.081 20.9816C145.187 20.9288 145.389 20.8143 145.689 20.6381C145.988 20.462 146.314 20.2638 146.667 20.0436C147.019 19.8234 147.349 19.6164 147.657 19.4227C147.966 19.2289 148.181 19.0968 148.305 19.0263C148.499 18.9206 148.666 18.8898 148.807 18.9339C148.948 18.9779 149.097 19.0704 149.256 19.2113C149.326 19.2641 149.467 19.4227 149.679 19.6869C149.89 19.9511 150.124 20.2374 150.379 20.5456C150.634 20.8539 150.872 21.149 151.092 21.4308C151.313 21.7126 151.467 21.9064 151.555 22.0121C151.66 22.1354 151.771 22.2015 151.885 22.2103C152 22.2191 152.096 22.1926 152.176 22.131C152.255 22.0693 152.308 21.9813 152.334 21.8668C152.361 21.7523 152.33 21.6246 152.242 21.4836C152.207 21.4132 152.136 21.2414 152.03 20.9684C151.925 20.6954 151.806 20.3915 151.674 20.0568C151.542 19.7221 151.405 19.3963 151.264 19.0792C151.123 18.7621 151.017 18.5331 150.947 18.3922C150.806 18.128 150.731 17.9166 150.722 17.7581C150.714 17.5995 150.806 17.4586 151 17.3353C151.053 17.3001 151.273 17.1591 151.66 16.9125C152.048 16.6659 152.48 16.3885 152.955 16.0802C153.431 15.772 153.893 15.4813 154.342 15.2083C154.792 14.9352 155.095 14.7459 155.254 14.6402ZM143.919 19.1849C143.831 19.2025 143.681 19.1584 143.469 19.0528C143.258 18.9471 143.02 18.815 142.756 18.6564C141.822 18.1456 140.889 17.6171 139.955 17.0711C139.145 16.6131 138.277 16.1154 137.353 15.5782C136.428 15.0409 135.569 14.5433 134.776 14.0853V9.32925H134.829V9.30282C134.829 8.84483 134.917 8.41767 135.093 8.02133C135.27 7.62499 135.507 7.27709 135.807 6.97764C136.106 6.67818 136.454 6.44038 136.851 6.26423C137.247 6.08808 137.674 6 138.132 6H149.705C150.163 6 150.595 6.08808 151 6.26423C151.405 6.44038 151.757 6.67818 152.057 6.97764C152.356 7.27709 152.594 7.62499 152.77 8.02133C152.946 8.41767 153.034 8.84483 153.034 9.30282V9.32925H153.087V14.0853C152.277 14.5433 151.409 15.0409 150.485 15.5782C149.56 16.1154 148.692 16.6131 147.882 17.0711C146.931 17.6171 145.997 18.1544 145.081 18.6828C144.923 18.7709 144.716 18.8766 144.46 18.9999C144.205 19.1232 144.024 19.1849 143.919 19.1849ZM139.797 10.9674H148.067V9.30282H139.797V10.9674ZM139.797 14.2703H148.067V12.6056H139.797V14.2703Z" fill="black"/>
<path d="M187 10.2538V9.29155C186.578 9.28643 186.156 9.24101 185.743 9.15589C185.04 9.00442 184.37 8.73053 183.762 8.34667C183.725 8.30043 183.681 8.25956 183.633 8.2252C182.812 7.70777 182.148 6.97457 181.712 6.10514C181.422 5.55409 181.21 4.96463 181.084 4.3542H181.06C180.993 3.99004 180.961 3.62029 180.964 3.25H176.621C176.621 5.34956 176.629 7.44911 176.612 9.54867V20.5418C176.603 21.1513 176.443 21.7489 176.144 22.28C175.846 22.811 175.42 23.2585 174.905 23.5815C174.367 23.9215 173.75 24.1125 173.114 24.135C172.479 24.1574 171.85 24.0105 171.29 23.7092C170.877 23.4692 170.505 23.164 170.189 22.8054C169.731 22.2796 169.442 21.6268 169.361 20.933C169.282 20.2189 169.411 19.4971 169.734 18.8555C169.927 18.4793 170.195 18.1462 170.519 17.8759C171.056 17.44 171.687 17.1369 172.362 16.991C172.926 16.8444 173.519 16.8625 174.073 17.043V14.8772C174.073 14.4545 174.086 14.0301 174.064 13.6153C174.05 13.2761 174.064 12.937 174.064 12.5978C172.237 12.342 170.379 12.7324 168.808 13.702C167.731 14.3647 166.826 15.2733 166.166 16.3537C165.114 18.0783 164.756 20.14 165.165 22.1199C165.574 24.0997 166.718 25.8491 168.366 27.0124L168.424 27.0628C169.289 27.6697 170.268 28.0947 171.301 28.3122C172.033 28.4629 172.781 28.5233 173.528 28.492C175.01 28.4548 176.446 27.9663 177.645 27.0912C178.557 26.4127 179.319 25.5517 179.883 24.5626C180.548 23.4291 180.945 22.1578 181.044 20.8462C181.071 20.4897 181.055 20.1332 181.054 19.7767C181.034 17.0993 181.025 14.4219 181.027 11.7444C182.774 12.9802 184.862 13.6375 187 13.6247V10.2538Z" fill="black"/>
<path d="M218.5 16C218.5 10.2011 213.799 5.5 208 5.5C202.201 5.5 197.5 10.2011 197.5 16C197.5 21.7989 202.201 26.5 208 26.5C213.799 26.5 218.5 21.7989 218.5 16ZM208.786 11.0077L210.141 12.3632L206.43 16.0764L210.473 20.1198L209.123 21.4695L203.724 16.0697L208.786 11.0077Z" fill="black"/>
</svg>
