<svg width="247" height="32" viewBox="0 0 247 32" fill="none" xmlns="http://www.w3.org/2000/svg">
<path d="M20.2964 4.03418H3.99878V24.1149H40.4503V20.0987H28.2998V16.0826H20.2964V4.03418Z" fill="white"/>
<path d="M80.9513 4.03418V16.0826H70.8262H70.3731L68.8982 15.5424V15.0935L68.8009 8.0503H60.7007L60.7976 15.9913H68.8009V20.0987H80.9513V24.1149H44.5V4.03418H80.9513Z" fill="white"/>
<path d="M85.0012 24.1149V4.03418H101.202V16.0826H109.303V4.03418H121.453V24.1149H109.303V20.0987H101.202V24.1149H85.0012Z" fill="white"/>
<path d="M125.503 24.1149V4.03418H141.8V20.0987H149.804V4.03418H161.955V24.1149H125.503Z" fill="white"/>
<path d="M166.004 20.0987V4.03418H182.301V16.0826H190.305V4.03418H202.456V24.1149H190.305V20.0987H182.301H166.004Z" fill="white"/>
<path d="M242.957 4.03418V16.0826H231.712L231.259 15.6337L230.806 15.1848L230.709 8.0503H222.706L222.802 16.0826H230.806V20.0987H242.957V24.1149H206.505V4.03418H242.957Z" fill="white"/>
<path d="M230.647 8.10889H222.709V12.1639H230.647V8.10889Z" fill="#BDBDBD"/>
<path d="M68.7864 8.10889H60.8481V12.1639H68.7864V8.10889Z" fill="#BDBDBD"/>
<path d="M190.241 20.271H166.19V24.3253H190.241V20.271Z" fill="#BDBDBD"/>
<path d="M162.101 24.3237H125.303V27.9011H162.101V24.3237Z" fill="#BDBDBD"/>
<path d="M101.253 24.3237H84.8982V27.9011H101.253V24.3237Z" fill="#BDBDBD"/>
<path d="M121.456 24.3237H109.431V27.9011H121.456V24.3237Z" fill="#BDBDBD"/>
<path d="M109.432 20.271H101.253V24.326H109.432V20.271Z" fill="#BDBDBD"/>
<path d="M80.8102 24.3237H44.4934V27.9011H80.8102V24.3237Z" fill="#BDBDBD"/>
<path d="M40.4052 24.3237H4.08838V27.9011H40.4052V24.3237Z" fill="#BDBDBD"/>
<path d="M149.837 16.2183H141.658V20.2733H149.837V16.2183Z" fill="#BDBDBD"/>
<path d="M242.911 16.2183H230.646V20.2726H242.911V16.2183Z" fill="#BDBDBD"/>
<path d="M80.8105 16.2183H69.0256V20.2726H80.8105V16.2183Z" fill="#BDBDBD"/>
<path d="M242.912 24.3237H206.595V27.9011H242.912V24.3237Z" fill="#BDBDBD"/>
<path d="M202.506 24.3237H190.24V27.9011H202.506V24.3237Z" fill="#BDBDBD"/>
</svg>
