<svg width="469" height="124" viewBox="0 0 469 124" fill="none" xmlns="http://www.w3.org/2000/svg">
<path d="M138.828 31.4838V15.957H153.441V31.4838H138.828Z" fill="#F8D45A"/>
<path d="M323 115.527V100H337.613V115.527H323Z" fill="#F8D45A"/>
<path d="M454 123.527V108H468.613V123.527H454Z" fill="#F8D45A"/>
<path d="M1 35.5268V20H15.6134V35.5268H1Z" fill="#F8D45A"/>
<path d="M454 15.5268V0H468.613V15.5268H454Z" fill="#F8D45A"/>
<path d="M469 39.2461L469 100.44L353.747 100.44L353.747 92.7907L315.296 92.7907L315.296 100.44L-1.5553e-05 100.44L-1.28781e-05 39.2463L469 39.2461Z" fill="#8C1900"/>
<path d="M38.5378 46.9727H7.59241V85.4243H76.8053V77.7339H53.7343V70.0436H38.5378V46.9727Z" fill="#F8D45A"/>
<path d="M153.709 46.9727V70.0436H134.483H133.623L130.822 69.0092V68.1496L130.638 54.663H115.257L115.441 69.8688H130.638V77.7339H153.709V85.4243H84.4957V46.9727H153.709Z" fill="#F8D45A"/>
<path d="M161.399 85.4243V46.9727H192.16V70.0436H207.541V46.9727H230.612V85.4243H207.541V77.7339H192.16V85.4243H161.399Z" fill="#F8D45A"/>
<path d="M238.302 85.4243V46.9727H269.248V77.7339H284.444V46.9727H307.515V85.4243H238.302Z" fill="#F8D45A"/>
<path d="M315.205 77.7339V46.9727H346.15V70.0436H361.347V46.9727H384.418V85.4243H361.347V77.7339H346.15H315.205Z" fill="#F8D45A"/>
<path d="M461.321 46.9727V70.0436H439.97L439.11 69.184L438.25 68.3244L438.066 54.663H422.87L423.054 70.0436H438.25V77.7339H461.321V85.4243H392.108V46.9727H461.321Z" fill="#F8D45A"/>
<rect x="422.876" y="54.7734" width="15.0701" height="7.76339" fill="#D64F3B"/>
<rect x="115.537" y="54.7734" width="15.0701" height="7.76339" fill="#D64F3B"/>
<rect x="315.559" y="78.0664" width="45.667" height="7.76339" fill="#D64F3B"/>
<rect x="237.925" y="85.8281" width="69.8705" height="6.85005" fill="#D64F3B"/>
<rect x="161.204" y="85.8281" width="31.0536" height="6.85005" fill="#D64F3B"/>
<rect x="207.785" y="85.8281" width="22.8335" height="6.85005" fill="#D64F3B"/>
<rect x="192.258" y="78.0664" width="15.5268" height="7.76339" fill="#D64F3B"/>
<rect x="84.484" y="85.8281" width="68.9572" height="6.85005" fill="#D64F3B"/>
<rect x="7.76343" y="85.8281" width="68.9572" height="6.85005" fill="#D64F3B"/>
<rect x="268.979" y="70.3008" width="15.5268" height="7.76339" fill="#D64F3B"/>
<rect x="422.876" y="62.5391" width="15.0701" height="7.76339" fill="#8C1900"/>
<rect x="392.279" y="47.0117" width="45.667" height="7.76339" transform="rotate(90 392.279 47.0117)" fill="#8C1900"/>
<rect x="361.226" y="47.0117" width="23.2902" height="15.5268" transform="rotate(90 361.226 47.0117)" fill="#8C1900"/>
<rect x="437.947" y="70.3008" width="23.2902" height="7.76339" fill="#D64F3B"/>
<rect x="131.064" y="70.3008" width="22.3768" height="7.76339" fill="#D64F3B"/>
<rect x="392.279" y="85.8281" width="68.9572" height="6.85005" fill="#D64F3B"/>
<rect x="361.226" y="85.8281" width="23.2902" height="6.85005" fill="#D64F3B"/>
<path d="M168.968 31.4821V23.7188H261.215V31.4821H168.968Z" fill="#D64F3B"/>
<path d="M0 115.763V108H92.2473V115.763H0Z" fill="#D64F3B"/>
<path d="M337.936 31.4821V23.7188H453.473V31.4821H337.936Z" fill="#D64F3B"/>
<path d="M168.968 115.763V108H284.505V115.763H168.968Z" fill="#D64F3B"/>
</svg>
