<svg class="loading-svg" width="386" height="50" viewBox="0 0 386 50" fill="none" xmlns="http://www.w3.org/2000/svg">
  <path fill="white" d="M31.4691 9H6V40.3761H62.9647V34.1009H43.9764V27.8257H31.4691V9Z" />
  <path fill="white" d="M126.257 9V27.8257H110.434H109.726L107.421 26.9816V26.2802L107.269 15.2752H94.6107L94.7622 27.683H107.269V34.1009H126.257V40.3761H69.293V9H126.257Z" />
  <path fill="white" d="M132.586 40.3761V9H157.904V27.8257H170.563V9H189.551V40.3761H170.563V34.1009H157.904V40.3761H132.586Z" />
  <path fill="white" d="M195.879 40.3761V9H221.348V34.1009H233.856V9H252.844V40.3761H195.879Z" />
  <path fill="white" d="M259.172 34.1009V9H284.641V27.8257H297.148V9H316.137V40.3761H297.148V34.1009H284.641H259.172Z" />
  <path fill="white" d="M379.43 9V27.8257H361.857L361.149 27.1243L360.442 26.4228L360.29 15.2752H347.783L347.934 27.8257H360.442V34.1009H379.43V40.3761H322.465V9H379.43Z" />
</svg>