<svg width="469" height="124" viewBox="0 0 469 124" fill="none" xmlns="http://www.w3.org/2000/svg">
<path d="M138.828 31.4838V15.957H153.442V31.4838H138.828Z" fill="#FFD600"/>
<path d="M323 115.527V100H337.613V115.527H323Z" fill="#FFD600"/>
<path d="M454 123.527V108H468.613V123.527H454Z" fill="#FFD600"/>
<path d="M1 35.5268V20H15.6134V35.5268H1Z" fill="#FFD600"/>
<path d="M454 15.5268V0H468.613V15.5268H454Z" fill="#FFD600"/>
<path d="M469 39.2461L469 100.44L353.747 100.44L353.747 92.7907L315.296 92.7907L315.296 100.44L-5.23786e-06 100.44L-2.56301e-06 39.2463L45 39.2463L45 63L60 63L59.9999 72L77 72L77 39.2463L469 39.2461Z" fill="black"/>
<path d="M38.5371 46.9727H7.5918V85.4243H76.8047V77.7339H53.7337V70.0436H38.5371V46.9727Z" fill="#FFD600"/>
<path d="M153.707 46.9727V70.0436H134.481H133.622L130.82 69.0092V68.1496L130.636 54.663H115.255L115.439 69.8688H130.636V77.7339H153.707V85.4243H84.4941V46.9727H153.707Z" fill="#FFD600"/>
<path d="M161.398 85.4243V46.9727H192.16V70.0436H207.54V46.9727H230.611V85.4243H207.54V77.7339H192.16V85.4243H161.398Z" fill="#FFD600"/>
<path d="M238.301 85.4243V46.9727H269.246V77.7339H284.443V46.9727H307.514V85.4243H238.301Z" fill="#FFD600"/>
<path d="M315.205 77.7339V46.9727H346.15V70.0436H361.347V46.9727H384.418V85.4243H361.347V77.7339H346.15H315.205Z" fill="#FFD600"/>
<path d="M461.32 46.9727V70.0436H439.969L439.109 69.184L438.249 68.3244L438.065 54.663H422.869L423.053 70.0436H438.249V77.7339H461.32V85.4243H392.107V46.9727H461.32Z" fill="#FFD600"/>
<rect x="422.877" y="54.7734" width="15.0701" height="7.76339" fill="#7C6100"/>
<rect x="115.537" y="54.7734" width="15.0701" height="7.76339" fill="#7C6100"/>
<rect x="315.559" y="78.0664" width="45.667" height="7.76339" fill="#7C6100"/>
<rect x="237.926" y="85.8281" width="69.8705" height="6.85005" fill="#7C6100"/>
<rect x="161.205" y="85.8281" width="31.0536" height="6.85005" fill="#7C6100"/>
<rect x="207.785" y="85.8281" width="22.8335" height="6.85005" fill="#7C6100"/>
<rect x="192.258" y="78.0664" width="15.5268" height="7.76339" fill="#7C6100"/>
<rect x="84.4844" y="85.8281" width="68.9572" height="6.85005" fill="#7C6100"/>
<rect x="7.76367" y="85.8281" width="68.9572" height="6.85005" fill="#7C6100"/>
<rect x="268.979" y="70.3008" width="15.5268" height="7.76339" fill="#7C6100"/>
<rect x="422.877" y="62.5391" width="15.0701" height="7.76339" fill="black"/>
<rect x="392.279" y="47.0117" width="45.667" height="7.76339" transform="rotate(90 392.279 47.0117)" fill="black"/>
<rect x="361.227" y="47.0117" width="23.2902" height="15.5268" transform="rotate(90 361.227 47.0117)" fill="black"/>
<rect x="437.947" y="70.3008" width="23.2902" height="7.76339" fill="#7C6100"/>
<rect x="131.064" y="70.3008" width="22.3768" height="7.76339" fill="#7C6100"/>
<rect x="392.279" y="85.8281" width="68.9572" height="6.85005" fill="#7C6100"/>
<rect x="361.227" y="85.8281" width="23.2902" height="6.85005" fill="#7C6100"/>
<path d="M168.969 31.4821V23.7188H261.216V31.4821H168.969Z" fill="#7C6100"/>
<path d="M0 115.763V108H92.2473V115.763H0Z" fill="#7C6100"/>
<path d="M337.936 31.4821V23.7188H453.473V31.4821H337.936Z" fill="#7C6100"/>
<path d="M168.969 115.763V108H284.506V115.763H168.969Z" fill="#7C6100"/>
</svg>
